<?xml version="1.0" standalone="no"?>
<!DOCTYPE svg PUBLIC "-//W3C//DTD SVG 20010904//EN"
 "http://www.w3.org/TR/2001/REC-SVG-20010904/DTD/svg10.dtd">
<svg version="1.0" xmlns="http://www.w3.org/2000/svg"
 width="512.000000pt" height="512.000000pt" viewBox="0 0 512.000000 512.000000"
 preserveAspectRatio="xMidYMid meet">
<metadata>
Created by potrace 1.14, written by Peter Selinger 2001-2017
</metadata>
<g transform="translate(0.000000,512.000000) scale(0.100000,-0.100000)"
fill="#000000" stroke="none">
<path d="M2035 4605 c-98 -24 -245 -104 -349 -189 l-28 -23 53 -31 c154 -88
191 -176 83 -197 -20 -3 -41 -8 -47 -10 -7 -3 -32 13 -56 35 -144 133 -343
158 -538 68 -215 -99 -331 -289 -288 -475 14 -59 13 -60 -58 -70 -90 -12 -123
33 -113 155 10 132 17 165 40 215 14 28 19 47 12 48 -46 5 -127 -5 -183 -22
-191 -59 -341 -205 -452 -440 -91 -195 -105 -245 -107 -405 -2 -195 20 -312
82 -440 23 -46 106 -144 122 -144 4 0 18 28 32 62 28 70 91 172 123 199 54 45
121 38 145 -16 31 -67 -3 -194 -66 -247 -50 -42 -73 -86 -86 -161 -26 -147 0
-323 68 -472 92 -202 274 -337 459 -339 37 -1 39 1 54 44 18 54 38 76 78 84
39 8 43 4 99 -81 26 -39 61 -86 79 -103 34 -34 132 -85 182 -95 128 -25 177
-26 243 -4 53 18 84 39 181 122 171 147 244 182 423 202 l56 6 -1 102 c-1 145
10 211 50 320 86 233 320 428 693 577 58 24 120 47 139 52 l33 10 -38 25 c-35
23 -144 114 -184 153 -54 52 -210 256 -210 274 0 3 -13 27 -28 53 -67 116
-147 358 -166 503 -3 19 -8 56 -11 82 -4 26 -8 111 -10 190 -1 79 -8 155 -14
170 -15 38 -117 140 -171 171 -92 53 -217 69 -325 42z"/>
<path d="M3306 4493 c-165 -30 -303 -112 -393 -231 -64 -85 -80 -144 -81 -292
-2 -298 98 -546 295 -730 187 -176 323 -238 493 -227 131 8 133 10 148 107 7
46 22 105 32 132 18 49 67 102 104 114 22 7 45 -18 47 -50 1 -12 2 -28 3 -36
1 -8 -5 -37 -12 -65 -14 -57 -17 -155 -6 -200 12 -51 51 -120 90 -159 62 -62
128 -88 259 -101 60 -5 126 -32 133 -53 5 -15 -55 -74 -91 -90 -103 -44 -295
26 -439 162 -94 88 -124 99 -266 91 -254 -13 -445 -51 -634 -125 -344 -137
-522 -326 -572 -606 -45 -254 56 -551 251 -735 104 -98 259 -182 378 -203 14
-3 33 -7 43 -10 45 -15 310 -23 343 -12 8 3 32 8 54 10 22 3 56 10 75 16 19 6
45 13 57 16 37 7 144 60 212 104 81 53 148 115 223 208 l58 74 -42 34 c-113
90 -210 101 -344 41 -166 -75 -286 -82 -461 -26 -72 23 -108 52 -124 97 -10
29 -9 35 7 47 11 8 28 15 39 16 11 1 27 2 35 3 8 0 34 -4 57 -11 95 -27 219
-34 300 -17 104 21 177 67 288 180 105 107 128 124 168 124 41 0 49 -23 34
-100 -2 -8 -16 -41 -32 -73 -28 -56 -28 -58 -9 -72 78 -61 171 -94 284 -99
220 -10 428 89 544 257 34 50 91 195 81 205 -4 4 -47 -1 -205 -24 -14 -2 -38
-6 -55 -9 -16 -3 -69 -7 -117 -11 -96 -6 -142 7 -178 54 -26 33 -25 48 5 68
20 13 50 17 136 17 171 -1 272 30 368 113 72 62 135 172 157 275 3 13 5 56 5
95 1 167 -93 317 -241 388 -62 30 -70 31 -190 30 -69 0 -156 -3 -195 -6 -130
-9 -169 32 -103 108 43 48 101 72 194 79 84 6 123 22 152 62 31 44 42 99 39
203 -2 89 -6 103 -39 172 -65 131 -177 218 -323 251 -103 24 -192 7 -237 -45
-9 -11 -35 -57 -58 -103 -80 -164 -223 -263 -387 -266 -71 -2 -123 30 -123 76
0 27 45 64 87 71 16 2 44 7 63 10 129 21 263 179 263 309 0 82 -34 133 -148
220 -175 132 -332 179 -499 148z"/>
<path d="M2381 1619 c-34 -99 11 -193 183 -376 152 -162 178 -210 182 -329 5
-161 86 -261 273 -333 99 -39 110 -36 45 12 -153 113 -219 254 -151 325 45 47
125 69 275 77 159 9 204 14 343 40 108 20 266 90 347 154 51 40 90 91 61 78
-134 -58 -269 -107 -334 -122 -11 -2 -38 -9 -60 -14 -293 -71 -583 -32 -799
109 -128 84 -252 222 -320 358 -14 28 -28 52 -30 52 -2 0 -9 -14 -15 -31z"/>
</g>
</svg>
