<svg width="580" height="471" viewBox="0 0 580 471" fill="none" xmlns="http://www.w3.org/2000/svg">
<path d="M293.774 343.313C228.955 343.313 176.227 290.548 176.227 225.685C176.227 160.822 228.955 108.057 293.774 108.057C358.592 108.057 411.32 160.822 411.32 225.685C411.32 290.548 358.592 343.313 293.774 343.313ZM293.774 109.421C229.711 109.421 177.582 161.578 177.582 225.694C177.582 289.811 229.702 341.967 293.774 341.967C357.845 341.967 409.965 289.811 409.965 225.694C409.965 161.578 357.845 109.421 293.774 109.421Z" fill="#8066A9"/>
<path d="M293.644 341.893C357.887 341.893 409.965 289.778 409.965 225.491C409.965 161.204 357.887 109.089 293.644 109.089C229.402 109.089 177.324 161.204 177.324 225.491C177.324 289.778 229.402 341.893 293.644 341.893Z" stroke="#8066A9" stroke-width="2.3068" stroke-miterlimit="10" stroke-linecap="round" stroke-linejoin="round"/>
<path d="M488.763 223.619C488.763 329.454 402.861 415.24 296.898 415.24C190.935 415.24 105.033 329.444 105.033 223.619C105.033 117.794 190.935 31.9983 296.898 31.9983" stroke="#8066A9" stroke-width="7.0905" stroke-miterlimit="10" stroke-linecap="round" stroke-linejoin="round"/>
<path d="M488.763 223.619C488.763 329.454 402.861 415.24 296.898 415.24C190.935 415.24 105.033 329.444 105.033 223.619C105.033 117.794 190.935 31.9983 296.898 31.9983" stroke="#8066A9" stroke-width="7.0905" stroke-miterlimit="10" stroke-linecap="round" stroke-linejoin="round"/>
<path d="M293.598 441.374C291.958 441.374 290.327 441.355 288.696 441.318" stroke="#8066A9" stroke-width="1.7389" stroke-linecap="round" stroke-linejoin="round"/>
<path d="M272.45 440.35C163.335 429.718 78.0598 337.67 78.0598 225.694C78.0598 110.952 167.593 17.1425 280.559 10.4017" stroke="#8066A9" stroke-width="1.7389" stroke-linecap="round" stroke-linejoin="round" stroke-dasharray="10.6 10.6"/>
<path d="M288.696 10.0606C290.327 10.0237 291.958 10.0053 293.598 10.0053" stroke="#8066A9" stroke-width="1.7389" stroke-linecap="round" stroke-linejoin="round"/>
<path d="M123.886 222.402C122.753 127.873 198.565 50.3213 293.212 49.187C387.859 48.0528 465.513 123.761 466.637 218.299" stroke="#8066A9" stroke-width="7.0905" stroke-miterlimit="10" stroke-linecap="round" stroke-linejoin="round"/>
<path d="M293.221 49.2793C387.684 48.145 465.182 124.01 466.315 218.723C467.449 313.436 391.794 391.145 297.322 392.27" stroke="#8066A9" stroke-width="1.7726" stroke-miterlimit="10" stroke-linecap="round" stroke-linejoin="round"/>
<path d="M294.031 76.215C375.28 75.2376 441.941 140.488 442.918 221.96C443.895 303.422 378.819 370.258 297.57 371.236" stroke="#8066A9" stroke-width="7.0905" stroke-miterlimit="10" stroke-linecap="round" stroke-linejoin="round"/>
<path d="M511.726 373.689C509.855 373.689 508.335 375.21 508.335 377.082C508.335 378.954 509.855 380.476 511.726 380.476C513.596 380.476 515.117 378.954 515.117 377.082C515.117 375.201 513.596 373.689 511.726 373.689Z" fill="#BDB0D7"/>
<path d="M496.669 378.032C488.818 378.032 482.432 384.422 482.432 392.279C482.432 400.136 488.818 406.526 496.669 406.526C504.52 406.526 510.906 400.136 510.906 392.279C510.897 384.422 504.511 378.032 496.669 378.032ZM496.669 401.399C491.638 401.399 487.555 397.305 487.555 392.279C487.555 387.244 491.647 383.159 496.669 383.159C501.7 383.159 505.783 387.253 505.783 392.279C505.783 397.305 501.691 401.399 496.669 401.399Z" fill="#BDB0D7"/>
<path d="M507.967 421.197H484.892C475.318 421.197 467.531 413.405 467.531 403.824V380.734C467.531 371.153 475.318 363.361 484.892 363.361H507.967C517.541 363.361 525.328 371.153 525.328 380.734V403.824C525.328 413.405 517.532 421.197 507.967 421.197ZM484.892 368.801C478.322 368.801 472.968 374.15 472.968 380.734V403.824C472.968 410.399 478.313 415.757 484.892 415.757H507.967C514.537 415.757 519.891 410.408 519.891 403.824V380.734C519.891 374.159 514.546 368.801 507.967 368.801H484.892Z" fill="#BDB0D7"/>
<path d="M64.3201 71.7795L65.9235 61.3132H55.8884V54.517C55.8884 51.6492 57.2891 48.8643 61.786 48.8643H66.3474V39.9564C66.3474 39.9564 62.2099 39.2464 58.2474 39.2464C49.9816 39.2464 44.5816 44.2628 44.5816 53.3367V61.3132H35.3943V71.7795H44.5816V97.0831H55.8884V71.7795H64.3201V71.7795Z" fill="#BDB0D7"/>
<path d="M0 307.212L4.14674 291.738C1.79692 287.505 0.562114 282.756 0.562114 277.943C0.562114 262.193 13.3709 249.375 29.1101 249.375C44.8493 249.375 57.6581 262.193 57.6581 277.943C57.6581 293.693 44.8493 306.511 29.1101 306.511C24.3828 306.511 19.7201 305.321 15.5457 303.053L0 307.212ZM16.3105 297.243L17.2873 297.824C20.8811 299.964 24.9634 301.098 29.1009 301.098C41.8637 301.098 52.2489 290.705 52.2489 277.934C52.2489 265.162 41.8637 254.769 29.1009 254.769C16.3382 254.769 5.95288 265.162 5.95288 277.934C5.95288 282.148 7.12318 286.307 9.33477 289.94L9.93375 290.927L7.62078 299.567L16.3105 297.243Z" fill="#BDB0D7"/>
<path fill-rule="evenodd" clip-rule="evenodd" d="M39.7257 281.917C38.5461 281.216 37.0257 280.433 35.6342 280.995C34.5745 281.428 33.8926 283.098 33.2107 283.946C32.8605 284.379 32.4366 284.453 31.8929 284.232C27.9029 282.646 24.8527 279.981 22.6503 276.311C22.2817 275.739 22.3462 275.287 22.7977 274.761C23.4612 273.978 24.2998 273.092 24.4749 272.032C24.65 270.981 24.1616 269.745 23.7285 268.804C23.1756 267.606 22.5489 265.89 21.351 265.217C20.2452 264.59 18.7892 264.941 17.8032 265.743C16.1077 267.126 15.2875 269.293 15.306 271.442C15.3152 272.05 15.3889 272.659 15.5271 273.249C15.8681 274.669 16.5223 275.988 17.2595 277.251C17.8124 278.201 18.4206 279.123 19.0749 280.008C21.2036 282.904 23.8575 285.421 26.9353 287.312C28.4742 288.252 30.1237 289.073 31.8376 289.645C33.7544 290.281 35.4683 290.936 37.5417 290.548C39.7072 290.133 41.8543 288.796 42.7113 286.703C42.9693 286.085 43.0984 285.394 42.9509 284.739C42.656 283.374 40.8223 282.572 39.7257 281.917Z" fill="#BDB0D7"/>
<path d="M472.968 0C460.924 0 451.156 9.7747 451.156 21.8271C451.156 32.0997 467.015 50.6993 471.687 55.9555C472.369 56.7209 473.567 56.7209 474.249 55.9555C478.921 50.6993 494.78 32.109 494.78 21.8271C494.78 9.7747 485.012 0 472.968 0ZM472.968 31.5649C467.024 31.5649 462.186 26.7237 462.186 20.7758C462.186 14.828 467.024 9.98679 472.968 9.98679C478.911 9.98679 483.749 14.828 483.749 20.7758C483.749 26.7237 478.911 31.5649 472.968 31.5649Z" fill="#BDB0D7"/>
<path d="M526.516 220.014L546.595 242.818C547.738 244.119 549.378 244.856 551.111 244.856C552.834 244.856 554.483 244.109 555.626 242.818L575.355 220.41C575.521 220.226 575.715 220.078 575.918 219.968C575.079 219.599 574.157 219.396 573.19 219.396H529.032C528.101 219.396 527.216 219.58 526.415 219.922C526.442 219.958 526.479 219.977 526.516 220.014Z" fill="#BDB0D7"/>
<path d="M578.959 222.596C578.867 222.826 578.747 223.048 578.572 223.251L558.833 245.659C556.88 247.881 554.06 249.154 551.102 249.154C548.144 249.154 545.333 247.881 543.37 245.659L523.291 222.854C523.254 222.808 523.217 222.753 523.19 222.706C522.572 223.739 522.204 224.938 522.204 226.22V257.084C522.204 260.856 525.254 263.908 529.023 263.908H573.181C576.95 263.908 580 260.856 580 257.084V226.22C580.009 224.892 579.622 223.647 578.959 222.596Z" fill="#BDB0D7"/>
<path d="M128.634 436.169C134.924 433.547 137.9 426.318 135.279 420.023C132.659 413.728 125.436 410.751 119.145 413.373C112.855 415.995 109.879 423.223 112.499 429.518C115.12 435.813 122.343 438.791 128.634 436.169Z" fill="#BDB0D7"/>
<path d="M123.877 441.374C111.234 441.374 100.987 451.628 100.987 464.28C100.987 467.6 103.678 470.292 106.995 470.292H140.759C144.076 470.292 146.767 467.6 146.767 464.28C146.767 451.628 136.511 441.374 123.877 441.374Z" fill="#BDB0D7"/>
<path d="M293.423 425.919C354.383 425.919 403.8 413.987 403.8 399.269C403.8 384.55 354.383 372.619 293.423 372.619C232.464 372.619 183.046 384.55 183.046 399.269C183.046 413.987 232.464 425.919 293.423 425.919Z" fill="#BDB0D7"/>
<path d="M157.585 232.619C157.401 232.638 157.216 232.647 157.032 232.647C144.315 232.38 132.087 228.912 121.665 222.633C90.2328 203.673 85.2751 166.419 84.6024 159.143C84.3997 156.912 85.9847 154.948 88.1594 154.745C90.3341 154.551 92.2601 156.192 92.4628 158.424C93.071 165.008 97.531 198.703 125.637 215.652C134.889 221.231 145.781 224.311 157.143 224.551C159.327 224.597 161.068 226.45 161.041 228.682C161.013 230.72 159.511 232.38 157.585 232.619Z" fill="#3D2B56"/>
<path d="M86.9985 159.088C86.9985 159.088 102.452 151.821 104.857 157.917C107.253 164.012 94.306 163.302 86.9985 159.088Z" fill="#3D2B56"/>
<path d="M88.8044 159.374C88.8044 159.374 83.4597 137.759 89.689 138.672C95.9092 139.575 93.6054 153.988 88.8044 159.374Z" fill="#3D2B56"/>
<path d="M88.2797 159.632C88.2797 159.632 71.361 145.164 76.9545 142.277C82.548 139.4 89.0537 152.458 88.2797 159.632Z" fill="#3D2B56"/>
<path d="M88.7124 159.549C88.7124 159.549 66.4858 160.628 68.5776 154.689C70.6694 148.751 84.3537 153.795 88.7124 159.549Z" fill="#3D2B56"/>
<path d="M421.548 232.693C421.733 232.712 421.917 232.721 422.101 232.721C434.818 232.453 447.046 228.986 457.468 222.706C488.9 203.747 493.858 166.493 494.531 159.217C494.734 156.985 493.149 155.021 490.974 154.818C488.799 154.625 486.873 156.266 486.67 158.498C486.062 165.082 481.602 198.777 453.497 215.726C444.245 221.305 433.353 224.385 421.991 224.625C419.807 224.671 418.065 226.524 418.093 228.756C418.129 230.794 419.622 232.453 421.548 232.693Z" fill="#3D2B56"/>
<path d="M492.144 159.162C492.144 159.162 476.691 151.895 474.286 157.991C471.89 164.086 484.837 163.376 492.144 159.162Z" fill="#3D2B56"/>
<path d="M490.338 159.448C490.338 159.448 495.683 137.833 489.453 138.745C483.233 139.649 485.537 154.062 490.338 159.448Z" fill="#3D2B56"/>
<path d="M490.864 159.706C490.864 159.706 507.783 145.237 502.189 142.351C496.596 139.474 490.09 152.532 490.864 159.706Z" fill="#3D2B56"/>
<path d="M490.43 159.623C490.43 159.623 512.657 160.702 510.565 154.763C508.464 148.824 494.78 153.869 490.43 159.623Z" fill="#3D2B56"/>
<path d="M256.996 307.571C256.84 307.737 248.721 316.138 244.003 329.619C237.728 347.564 240.124 365.712 251.108 383.565C251.219 383.749 251.32 383.943 251.394 384.136C251.403 384.164 251.421 384.192 251.431 384.229C257.282 398.042 216.027 399.407 224.099 388.987C228.568 383.224 236.429 382.348 242.566 382.716C230.319 359.866 232.955 339.929 237.562 326.918C242.879 311.933 251.744 302.877 252.113 302.499C253.476 301.125 255.679 301.144 257.024 302.545C258.369 303.938 258.36 306.197 256.996 307.571Z" fill="#3D2B56"/>
<path d="M326.431 310.144C326.588 310.31 334.706 318.711 339.425 332.192C345.7 350.137 343.304 368.285 332.32 386.138C332.209 386.322 332.108 386.516 332.034 386.709C332.025 386.737 332.006 386.765 331.997 386.802C326.146 400.615 367.401 401.98 359.329 391.56C354.86 385.796 346.999 384.92 340.862 385.289C353.109 362.439 350.473 342.502 345.866 329.49C340.549 314.506 331.684 305.45 331.315 305.072C329.952 303.698 327.749 303.717 326.404 305.118C325.058 306.511 325.068 308.77 326.431 310.144Z" fill="#3D2B56"/>
<path d="M430.837 245.188C427.972 275.757 403.662 298.848 375.004 299.816C372.258 299.908 369.65 301.208 367.798 303.348C355.984 317.023 338.42 324.981 319.585 323.211C310.057 322.316 301.312 319.043 293.811 314.008C290.383 311.702 285.978 312.034 282.485 314.303C272.174 320.998 259.798 324.391 246.833 323.174C225.436 321.164 207.964 307.138 199.836 288.049C198.611 285.182 196.242 283.024 193.349 282.148C167.501 274.291 149.882 248.176 152.61 219.064C154.287 201.211 163.281 185.922 176.172 176.074C177.859 174.783 179.158 173.068 179.978 171.067C189.589 147.533 212.866 131.986 238.475 134.393C251.615 135.629 263.291 141.392 272.229 150.069C276.791 154.505 283.886 153.896 287.839 148.806C299.607 133.655 318.101 124.664 338.024 126.536C364.37 129.008 384.772 149.682 389.084 175.613C389.729 179.476 392.19 182.658 395.664 184.133C418.425 193.834 433.362 218.216 430.837 245.188Z" fill="url(#paint0_radial_247_406)"/>
<path opacity="0.1" d="M206.112 296.081C200.242 285.661 198.288 274.088 199.772 263.087" stroke="#3D2B56" stroke-width="4.6402" stroke-miterlimit="10" stroke-linecap="round" stroke-linejoin="round"/>
<path opacity="0.1" d="M381.528 160.425C387.223 170.947 388.973 182.547 387.306 193.53" stroke="#3D2B56" stroke-width="4.6402" stroke-miterlimit="10" stroke-linecap="round" stroke-linejoin="round"/>
<path opacity="0.1" d="M300.777 139.446C300.049 138.524 298.703 138.367 297.773 139.096C289.811 145.394 283.904 153.592 280.412 163.016C275.85 154.09 269.022 146.648 260.36 141.309C259.355 140.691 258.038 141.005 257.42 142.01C256.803 143.015 257.116 144.334 258.121 144.952C267.428 150.687 274.468 159.051 278.532 169.158C275.942 179.827 276.56 190.865 280.43 201.257C280.753 202.115 281.564 202.65 282.43 202.65C282.679 202.65 282.927 202.604 283.176 202.512C284.282 202.097 284.844 200.87 284.429 199.764C280.697 189.74 280.237 179.071 283.02 168.817C285.895 158.313 291.884 149.212 300.417 142.462C301.357 141.724 301.514 140.378 300.777 139.446Z" fill="#3D2B56"/>
<path opacity="0.1" d="M372.903 290.659C367.77 301.467 359.449 309.729 349.598 314.847" stroke="#3D2B56" stroke-width="4.6402" stroke-miterlimit="10" stroke-linecap="round" stroke-linejoin="round"/>
<g opacity="0.8">
<path opacity="0.8" d="M172.956 263.253C170.975 261.621 169.169 259.777 167.482 257.812C165.851 255.811 164.312 253.7 163.004 251.45C160.378 246.959 158.433 242.016 157.337 236.898C156.203 231.78 155.964 226.487 156.48 221.314C157.023 216.141 158.406 211.051 160.719 206.449C161.401 205.094 163.059 204.54 164.414 205.223C165.538 205.794 166.109 207.03 165.879 208.21L165.87 208.257C164.976 212.803 164.432 217.303 164.377 221.794C164.377 224.034 164.423 226.284 164.681 228.498C164.865 230.72 165.234 232.924 165.686 235.1C166.598 239.462 168.035 243.694 169.915 247.77C170.874 249.799 171.942 251.791 173.104 253.746C174.274 255.701 175.573 257.573 176.9 259.482L176.946 259.555C177.812 260.8 177.508 262.515 176.264 263.382C175.251 264.111 173.887 264.019 172.956 263.253Z" fill="white"/>
</g>
<g opacity="0.8">
<path opacity="0.8" d="M190.253 161.439C192.732 156.967 196.031 152.827 200.076 149.304C204.158 145.827 209.005 143.162 214.037 141.493C216.543 140.599 219.096 140.009 221.648 139.502C222.929 139.299 224.173 139.031 225.491 138.893C226.79 138.736 228.09 138.616 229.398 138.543C234.614 138.275 239.866 138.736 244.861 140.083C246.418 140.497 247.34 142.102 246.916 143.66C246.547 145.016 245.285 145.892 243.93 145.818H243.893C239.24 145.551 234.632 145.661 230.108 146.298C227.841 146.584 225.629 147.091 223.362 147.589C222.256 147.893 221.132 148.133 220.063 148.492L218.441 148.981L216.847 149.525C214.746 150.3 212.71 151.185 210.765 152.209C208.839 153.269 206.96 154.413 205.163 155.713C203.366 157.022 201.652 158.479 199.947 160.019C198.251 161.568 196.63 163.247 194.934 164.916L194.879 164.971C193.727 166.105 191.875 166.087 190.741 164.934C189.792 163.966 189.645 162.546 190.253 161.439Z" fill="white"/>
</g>
<g opacity="0.8">
<path opacity="0.8" d="M310.821 134.78C313.226 133.406 315.816 132.355 318.479 131.488C321.161 130.714 323.916 130.096 326.726 129.782C329.528 129.496 332.357 129.413 335.177 129.589C337.987 129.791 340.788 130.17 343.525 130.815C346.253 131.47 348.944 132.263 351.524 133.314C354.104 134.338 356.629 135.518 359.053 136.947C363.863 139.797 368.231 143.421 371.613 147.792C372.617 149.083 372.377 150.945 371.087 151.951C370.074 152.734 368.719 152.762 367.705 152.117L367.65 152.08C363.43 149.424 359.237 147.063 354.841 145.191C353.745 144.721 352.639 144.278 351.524 143.863C350.381 143.485 349.275 143.015 348.124 142.683C345.857 141.908 343.562 141.291 341.258 140.756L339.526 140.368L337.784 140.055C336.623 139.815 335.453 139.695 334.292 139.52C331.951 139.225 329.601 139.096 327.233 139.031C324.874 139.013 322.488 139.087 320.101 139.308C317.705 139.511 315.318 139.907 312.849 140.276L312.729 140.295C311.116 140.534 309.605 139.419 309.365 137.805C309.181 136.542 309.799 135.37 310.821 134.78Z" fill="white"/>
</g>
<path opacity="0.1" d="M365.816 282.766C372.857 279.427 381.768 282.618 385.103 289.654" stroke="#3D2B56" stroke-width="4.6402" stroke-miterlimit="10" stroke-linecap="round" stroke-linejoin="round"/>
<g opacity="0.8">
<path opacity="0.8" d="M367.512 273.968C369.244 272.677 371.391 271.93 373.585 271.718C375.778 271.488 378.026 271.81 380.09 272.557C382.155 273.314 384.071 274.512 385.619 276.071C387.168 277.62 388.365 279.538 388.928 281.622C389.167 282.489 388.651 283.383 387.785 283.623C387.14 283.798 386.476 283.559 386.08 283.061L386.034 282.996C384.974 281.659 383.832 280.516 382.542 279.566C381.251 278.634 379.851 277.887 378.358 277.38C376.874 276.864 375.317 276.578 373.741 276.477C372.156 276.394 370.562 276.532 368.876 276.864L368.793 276.882C367.908 277.057 367.051 276.477 366.876 275.591C366.766 274.955 367.033 274.337 367.512 273.968Z" fill="white"/>
</g>
<path opacity="0.1" d="M391.591 208.745C383.814 208.349 377.474 201.313 377.87 193.53" stroke="#3D2B56" stroke-width="4.6402" stroke-miterlimit="10" stroke-linecap="round" stroke-linejoin="round"/>
<g opacity="0.8">
<path opacity="0.8" d="M384.616 214.841C382.432 214.951 380.211 214.481 378.202 213.577C376.184 212.683 374.368 211.337 372.885 209.714C371.401 208.081 370.249 206.145 369.549 204.042C368.858 201.949 368.628 199.671 368.987 197.523C369.171 196.426 370.213 195.679 371.309 195.863C372.221 196.02 372.894 196.757 372.986 197.643L372.995 197.726C373.161 199.349 373.548 200.889 374.166 202.327C374.783 203.775 375.64 205.112 376.681 206.283C377.723 207.464 378.967 208.45 380.34 209.225C381.713 209.999 383.215 210.525 384.809 210.829L384.883 210.839C385.979 211.041 386.698 212.102 386.486 213.199C386.32 214.14 385.528 214.804 384.616 214.841Z" fill="white"/>
</g>
<g opacity="0.8">
<path opacity="0.8" d="M198.684 199.561C198.564 197.624 198.924 195.605 199.771 193.724C200.61 191.842 201.946 190.109 203.651 188.845C205.347 187.573 207.365 186.78 209.383 186.476C211.401 186.171 213.419 186.328 215.253 186.918C216.156 187.204 216.644 188.172 216.358 189.076C216.146 189.74 215.566 190.183 214.921 190.256L214.838 190.266C213.244 190.441 211.76 190.681 210.396 191.114C209.032 191.547 207.807 192.165 206.729 192.958C205.66 193.77 204.738 194.766 203.973 195.946C203.209 197.126 202.6 198.491 202.029 199.985L202.001 200.068C201.67 200.953 200.674 201.396 199.799 201.064C199.136 200.806 198.73 200.206 198.684 199.561Z" fill="white"/>
</g>
<g opacity="0.8">
<path opacity="0.8" d="M175.822 207.417C176.578 205.638 177.785 203.978 179.342 202.641C180.89 201.294 182.844 200.299 184.908 199.856C186.981 199.395 189.147 199.505 191.11 200.059C193.082 200.621 194.86 201.608 196.288 202.908C197.026 203.581 197.072 204.716 196.408 205.453C195.911 205.997 195.155 206.172 194.501 205.942L194.418 205.914C192.907 205.398 191.478 204.974 190.068 204.78C188.658 204.577 187.295 204.596 185.977 204.854C184.659 205.112 183.406 205.656 182.217 206.403C181.028 207.159 179.923 208.155 178.835 209.299L178.78 209.363C178.098 210.082 176.965 210.11 176.246 209.428C175.684 208.893 175.546 208.091 175.822 207.417Z" fill="white"/>
</g>
<path opacity="0.1" d="M213.41 180.104C209.706 179.191 205.882 179.504 202.362 181.016C196.842 183.396 193.036 188.347 192.059 194.111C189.018 193.216 185.682 193.207 182.522 194.139C181.655 185.618 182.918 177.024 186.245 169.167C186.705 168.079 186.198 166.825 185.111 166.364C184.015 165.903 182.77 166.41 182.31 167.498C178.513 176.461 177.177 186.291 178.412 195.983C175.961 197.486 173.924 199.579 172.579 202.06C172.017 203.102 172.404 204.393 173.445 204.955C173.767 205.13 174.118 205.213 174.459 205.213C175.214 205.213 175.951 204.808 176.338 204.088C177.84 201.313 180.522 199.183 183.701 198.242C186.632 197.366 189.755 197.587 192.4 198.795C192.787 199.201 193.331 199.459 193.93 199.459C193.939 199.459 193.957 199.459 193.967 199.459C194.363 199.45 194.713 199.312 195.026 199.118C195.404 198.924 195.754 198.657 195.976 198.261C196.27 197.716 196.289 197.117 196.114 196.573C196.298 191.492 199.33 186.973 204.048 184.945C206.702 183.801 209.586 183.562 212.387 184.253C213.539 184.53 214.691 183.838 214.977 182.686C215.262 181.551 214.562 180.389 213.41 180.104Z" fill="#3D2B56"/>
<path opacity="0.1" d="M219.317 253.939C221.75 261.344 217.474 269.791 210.065 272.225" stroke="#3D2B56" stroke-width="4.6402" stroke-miterlimit="10" stroke-linecap="round" stroke-linejoin="round"/>
<g opacity="0.8">
<path opacity="0.8" d="M227.85 255.535C228.79 257.508 229.168 259.758 229.057 261.962C228.946 264.175 228.347 266.351 227.334 268.316C226.329 270.28 224.929 272.041 223.215 273.434C221.51 274.826 219.483 275.85 217.354 276.301C216.294 276.523 215.244 275.85 215.023 274.78C214.838 273.885 215.281 273.009 216.064 272.613L216.128 272.576C217.584 271.847 218.893 270.925 220.017 269.81C221.132 268.694 222.072 267.403 222.772 265.992C223.463 264.581 223.952 263.069 224.173 261.51C224.403 259.952 224.376 258.366 224.136 256.743L224.127 256.66C223.97 255.581 224.707 254.576 225.786 254.419C226.652 254.299 227.481 254.769 227.85 255.535Z" fill="white"/>
</g>
<path opacity="0.1" d="M301.367 311.896C298.271 311.333 295.405 309.443 293.525 306.704C291.636 303.975 290.88 300.627 291.442 297.52C291.654 296.358 290.88 295.242 289.719 295.03C288.567 294.827 287.443 295.593 287.231 296.754C286.752 299.392 286.973 302.158 287.821 304.749C281.435 310.882 273.584 315.262 265.023 317.41C263.88 317.696 263.18 318.858 263.466 320.002C263.705 320.97 264.581 321.625 265.539 321.625C265.714 321.625 265.889 321.606 266.064 321.56C274.901 319.338 283.038 314.93 289.774 308.77C289.848 308.89 289.922 309.019 289.996 309.13C292.521 312.79 296.382 315.326 300.593 316.092C300.722 316.119 300.851 316.129 300.98 316.129C301.994 316.129 302.897 315.409 303.081 314.367C303.302 313.224 302.528 312.108 301.367 311.896Z" fill="#3D2B56"/>
<path d="M251.987 223.617C256.469 219.421 256.702 212.383 252.508 207.898C248.314 203.413 241.281 203.179 236.799 207.376C232.318 211.573 232.084 218.611 236.278 223.096C240.472 227.581 247.505 227.814 251.987 223.617Z" fill="#3D2B56"/>
<path d="M244.482 212.756C244.399 214.85 242.639 216.482 240.547 216.399C238.456 216.316 236.825 214.555 236.908 212.461C236.991 210.368 238.751 208.736 240.842 208.819C242.934 208.893 244.565 210.663 244.482 212.756Z" fill="#DDEBD2"/>
<path d="M333.012 221.698C337.494 217.501 337.728 210.463 333.534 205.979C329.34 201.494 322.307 201.26 317.825 205.457C313.343 209.654 313.11 216.692 317.304 221.177C321.498 225.661 328.531 225.895 333.012 221.698Z" fill="#3D2B56"/>
<path d="M325.509 210.839C325.426 212.932 323.666 214.564 321.574 214.481C319.483 214.398 317.851 212.637 317.934 210.543C318.017 208.45 319.777 206.818 321.869 206.901C323.961 206.984 325.592 208.745 325.509 210.839Z" fill="#DDEBD2"/>
<path d="M301.671 240.587C301.56 242.809 301.367 245.861 300.703 249.024C299.164 256.263 295.147 264.028 283.978 263.474C279.048 263.225 275.574 261.658 273.15 259.38C267.345 253.921 267.594 244.386 268.469 239.314C268.773 237.525 270.312 236.234 272.082 236.271L275.316 236.336L294.317 236.714L298.197 236.788C300.196 236.815 301.772 238.53 301.671 240.587Z" fill="#7A1B0F"/>
<path d="M300.703 249.015C299.165 256.254 295.147 264.018 283.978 263.465C279.048 263.216 275.574 261.649 273.151 259.371C277.214 254.843 286.245 247.374 300.703 249.015Z" fill="#BF4667"/>
<path d="M285.185 264.424C284.771 264.424 284.356 264.415 283.932 264.397C278.237 264.111 273.888 262.091 271.013 258.384C265.88 251.772 267.087 241.989 267.575 239.148C267.962 236.889 269.87 235.285 272.109 235.331L298.224 235.847C299.441 235.875 300.574 236.382 301.404 237.295C302.233 238.199 302.648 239.388 302.592 240.624C302.27 247.282 301.219 255.572 295.893 260.533C293.119 263.096 289.525 264.406 285.185 264.424ZM271.989 237.193C270.69 237.203 269.593 238.143 269.363 239.462C268.902 242.108 267.769 251.21 272.432 257.213C274.975 260.487 278.873 262.276 284.024 262.534C288.438 262.755 292.014 261.612 294.658 259.15C299.487 254.65 300.454 246.848 300.759 240.541C300.795 239.803 300.547 239.102 300.058 238.567C299.561 238.023 298.897 237.719 298.169 237.71L272.054 237.193C272.035 237.193 272.008 237.193 271.989 237.193Z" fill="#7A1B0F"/>
<defs>
<radialGradient id="paint0_radial_247_406" cx="0" cy="0" r="1" gradientUnits="userSpaceOnUse" gradientTransform="translate(324.867 230.017) scale(127.528 127.617)">
<stop offset="0.000984618" stop-color="#EAD8EA"/>
<stop offset="1" stop-color="#FFE37B"/>
</radialGradient>
</defs>
</svg>
