<svg width="580" height="469" viewBox="0 0 580 469" fill="none" xmlns="http://www.w3.org/2000/svg">
<g clip-path="url(#clip0_416_33)">
<path d="M293.774 341.702C228.955 341.702 176.227 289.185 176.227 224.626C176.227 160.067 228.955 107.549 293.774 107.549C358.592 107.549 411.32 160.067 411.32 224.626C411.32 289.185 358.592 341.702 293.774 341.702ZM293.774 108.908C229.711 108.908 177.582 160.819 177.582 224.635C177.582 288.45 229.702 340.362 293.774 340.362C357.845 340.362 409.965 288.45 409.965 224.635C409.965 160.819 357.845 108.908 293.774 108.908Z" fill="#8066A9"/>
<path d="M293.644 340.288C357.887 340.288 409.965 288.418 409.965 224.433C409.965 160.448 357.887 108.577 293.644 108.577C229.402 108.577 177.324 160.448 177.324 224.433C177.324 288.418 229.402 340.288 293.644 340.288Z" stroke="#A4A4A4" stroke-width="2.3068" stroke-miterlimit="10" stroke-linecap="round" stroke-linejoin="round"/>
<path d="M488.763 222.57C488.763 327.907 402.861 413.291 296.898 413.291C190.935 413.291 105.033 327.898 105.033 222.57C105.033 117.241 190.935 31.8481 296.898 31.8481" stroke="#8066A9" stroke-width="7.0905" stroke-miterlimit="10" stroke-linecap="round" stroke-linejoin="round"/>
<path d="M488.763 222.57C488.763 327.907 402.861 413.291 296.898 413.291C190.935 413.291 105.033 327.898 105.033 222.57C105.033 117.241 190.935 31.8481 296.898 31.8481" stroke="#707070" stroke-width="7.0905" stroke-miterlimit="10" stroke-linecap="round" stroke-linejoin="round"/>
<path d="M293.598 439.302C291.958 439.302 290.327 439.284 288.696 439.247" stroke="#656565" stroke-width="1.7389" stroke-linecap="round" stroke-linejoin="round"/>
<path d="M272.45 438.283C163.335 427.701 78.0598 336.085 78.0598 224.635C78.0598 110.431 167.593 17.062 280.559 10.3528" stroke="#707070" stroke-width="1.7389" stroke-linecap="round" stroke-linejoin="round" stroke-dasharray="10.6 10.6"/>
<path d="M288.696 10.0135C290.327 9.97668 291.958 9.95825 293.598 9.95825" stroke="#656565" stroke-width="1.7389" stroke-linecap="round" stroke-linejoin="round"/>
<path d="M123.886 221.358C122.753 127.273 198.565 50.085 293.212 48.9561C387.859 47.8272 465.513 123.18 466.637 217.274" stroke="#707070" stroke-width="7.0905" stroke-miterlimit="10" stroke-linecap="round" stroke-linejoin="round"/>
<path d="M293.221 49.0479C387.684 47.919 465.182 123.427 466.315 217.696C467.449 311.965 391.794 389.309 297.322 390.428" stroke="#707070" stroke-width="1.7726" stroke-miterlimit="10" stroke-linecap="round" stroke-linejoin="round"/>
<path d="M294.031 75.8572C375.28 74.8843 441.941 139.829 442.918 220.918C443.895 301.997 378.818 368.52 297.57 369.493" stroke="#707070" stroke-width="7.0905" stroke-miterlimit="10" stroke-linecap="round" stroke-linejoin="round"/>
<path d="M511.726 371.934C509.855 371.934 508.335 373.449 508.335 375.312C508.335 377.175 509.855 378.69 511.726 378.69C513.596 378.69 515.117 377.175 515.117 375.312C515.117 373.44 513.596 371.934 511.726 371.934Z" fill="#EDB731" fill-opacity="0.5"/>
<path d="M64.3201 71.4426L65.9235 61.0254H55.8884V54.2611C55.8884 51.4067 57.2891 48.6349 61.786 48.6349H66.3474V39.7689C66.3474 39.7689 62.2099 39.0621 58.2474 39.0621C49.9816 39.0621 44.5816 44.055 44.5816 53.0863V61.0254H35.3943V71.4426H44.5816V96.6274H55.8884V71.4426H64.3201Z" fill="#F4D483"/>
<path d="M472.968 0C460.924 0 451.156 9.72881 451.156 21.7246C451.156 31.9491 467.015 50.4613 471.687 55.6929C472.369 56.4547 473.567 56.4547 474.249 55.6929C478.921 50.4613 494.78 31.9582 494.78 21.7246C494.78 9.72881 485.012 0 472.968 0ZM472.968 31.4167C467.024 31.4167 462.186 26.5982 462.186 20.6783C462.186 14.7584 467.024 9.93991 472.968 9.93991C478.911 9.93991 483.749 14.7584 483.749 20.6783C483.749 26.5982 478.911 31.4167 472.968 31.4167Z" fill="#F4D483"/>
<path d="M526.516 218.981L546.595 241.678C547.738 242.973 549.378 243.707 551.111 243.707C552.834 243.707 554.483 242.963 555.626 241.678L575.355 219.376C575.521 219.192 575.715 219.045 575.918 218.935C575.079 218.568 574.158 218.366 573.19 218.366H529.032C528.101 218.366 527.216 218.55 526.415 218.889C526.442 218.926 526.479 218.944 526.516 218.981Z" fill="#F4D483"/>
<path d="M578.959 221.551C578.867 221.78 578.747 222.001 578.572 222.203L558.833 244.505C556.88 246.717 554.06 247.984 551.102 247.984C548.144 247.984 545.333 246.717 543.37 244.505L523.291 221.808C523.254 221.762 523.217 221.707 523.19 221.661C522.572 222.689 522.204 223.882 522.204 225.158V255.877C522.204 259.631 525.254 262.669 529.023 262.669H573.181C576.95 262.669 580 259.631 580 255.877V225.158C580.009 223.836 579.622 222.597 578.959 221.551Z" fill="#F4D483"/>
<path d="M0 305.769L4.14674 290.369C1.79692 286.156 0.562114 281.429 0.562114 276.638C0.562114 260.962 13.3709 248.204 29.1101 248.204C44.8493 248.204 57.6581 260.962 57.6581 276.638C57.6581 292.314 44.8493 305.072 29.1101 305.072C24.3828 305.072 19.7201 303.888 15.5457 301.63L0 305.769ZM16.3105 295.848L17.2873 296.426C20.8812 298.555 24.9634 299.684 29.1009 299.684C41.8637 299.684 52.249 289.341 52.249 276.629C52.249 263.917 41.8637 253.573 29.1009 253.573C16.3382 253.573 5.95288 263.917 5.95288 276.629C5.95288 280.823 7.12318 284.963 9.33477 288.579L9.93375 289.561L7.62079 298.161L16.3105 295.848Z" fill="#F4D483"/>
<path fill-rule="evenodd" clip-rule="evenodd" d="M39.7257 280.594C38.5462 279.896 37.0257 279.116 35.6342 279.676C34.5745 280.107 33.8926 281.769 33.2107 282.613C32.8605 283.044 32.4366 283.118 31.893 282.898C27.9029 281.319 24.8527 278.666 22.6503 275.014C22.2817 274.444 22.3462 273.995 22.7978 273.472C23.4612 272.691 24.2998 271.81 24.4749 270.755C24.65 269.709 24.1616 268.479 23.7285 267.542C23.1756 266.349 22.5489 264.642 21.351 263.972C20.2452 263.348 18.7892 263.697 17.8032 264.495C16.1077 265.872 15.2875 268.029 15.306 270.167C15.3152 270.773 15.3889 271.379 15.5271 271.966C15.8681 273.38 16.5223 274.692 17.2595 275.95C17.8124 276.895 18.4206 277.813 19.0749 278.694C21.2036 281.576 23.8575 284.082 26.9353 285.963C28.4742 286.899 30.1237 287.716 31.8377 288.285C33.7544 288.918 35.4684 289.57 37.5417 289.185C39.7073 288.772 41.8544 287.441 42.7114 285.357C42.9694 284.742 43.0984 284.054 42.9509 283.402C42.6561 282.044 40.8223 281.245 39.7257 280.594Z" fill="#F4D483"/>
<path d="M496.669 376.257C488.818 376.257 482.432 382.618 482.432 390.438C482.432 398.257 488.818 404.618 496.669 404.618C504.52 404.618 510.906 398.257 510.906 390.438C510.897 382.618 504.511 376.257 496.669 376.257ZM496.669 399.515C491.638 399.515 487.555 395.44 487.555 390.438C487.555 385.426 491.647 381.36 496.669 381.36C501.7 381.36 505.783 385.436 505.783 390.438C505.783 395.44 501.691 399.515 496.669 399.515Z" fill="#F4D483"/>
<path d="M507.967 419.22H484.892C475.318 419.22 467.531 411.465 467.531 401.929V378.947C467.531 369.41 475.318 361.655 484.892 361.655H507.967C517.541 361.655 525.328 369.41 525.328 378.947V401.929C525.328 411.465 517.532 419.22 507.967 419.22ZM484.892 367.07C478.322 367.07 472.968 372.393 472.968 378.947V401.929C472.968 408.473 478.313 413.805 484.892 413.805H507.967C514.537 413.805 519.891 408.482 519.891 401.929V378.947C519.891 372.403 514.546 367.07 507.967 367.07H484.892Z" fill="#F4D483"/>
<path d="M128.634 434.121C134.924 431.511 137.9 424.317 135.279 418.051C132.659 411.786 125.436 408.822 119.145 411.432C112.855 414.042 109.879 421.237 112.499 427.502C115.12 433.767 122.343 436.731 128.634 434.121Z" fill="#F4D483"/>
<path d="M123.877 439.302C111.234 439.302 100.987 449.508 100.987 462.1C100.987 465.404 103.678 468.084 106.995 468.084H140.759C144.076 468.084 146.767 465.404 146.767 462.1C146.767 449.508 136.511 439.302 123.877 439.302Z" fill="#F4D483"/>
<path d="M293.423 423.919C354.383 423.919 403.8 412.044 403.8 397.395C403.8 382.745 354.383 370.87 293.423 370.87C232.464 370.87 183.046 382.745 183.046 397.395C183.046 412.044 232.464 423.919 293.423 423.919Z" fill="#F1C55A"/>
<path d="M157.585 231.527C157.401 231.546 157.216 231.555 157.032 231.555C144.316 231.289 132.087 227.838 121.665 221.588C90.2328 202.717 85.2751 165.638 84.6024 158.396C84.3997 156.175 85.9847 154.22 88.1594 154.018C90.3341 153.825 92.2601 155.459 92.4628 157.68C93.071 164.233 97.531 197.77 125.637 214.64C134.889 220.192 145.781 223.258 157.143 223.497C159.327 223.542 161.068 225.387 161.041 227.608C161.013 229.637 159.511 231.289 157.585 231.527Z" fill="#282828"/>
<path d="M86.9985 158.341C86.9985 158.341 102.452 151.109 104.857 157.175C107.253 163.242 94.306 162.536 86.9985 158.341Z" fill="#282828"/>
<path d="M88.8044 158.626C88.8044 158.626 83.4597 137.112 89.689 138.021C95.9091 138.92 93.6054 153.266 88.8044 158.626Z" fill="#282828"/>
<path d="M88.2797 158.883C88.2797 158.883 71.361 144.482 76.9545 141.609C82.548 138.746 89.0538 151.742 88.2797 158.883Z" fill="#282828"/>
<path d="M88.7123 158.8C88.7123 158.8 66.4858 159.874 68.5776 153.963C70.6694 148.052 84.3537 153.073 88.7123 158.8Z" fill="#282828"/>
<path d="M421.548 231.601C421.733 231.619 421.917 231.628 422.101 231.628C434.818 231.362 447.046 227.911 457.468 221.661C488.9 202.791 493.858 165.711 494.531 158.47C494.734 156.248 493.149 154.294 490.974 154.092C488.799 153.899 486.873 155.533 486.67 157.754C486.062 164.307 481.602 197.844 453.497 214.713C444.245 220.266 433.353 223.331 421.991 223.57C419.807 223.616 418.065 225.461 418.093 227.682C418.129 229.71 419.622 231.362 421.548 231.601Z" fill="#282828"/>
<path d="M492.144 158.415C492.144 158.415 476.691 151.182 474.286 157.249C471.89 163.316 484.837 162.609 492.144 158.415Z" fill="#282828"/>
<path d="M490.338 158.699C490.338 158.699 495.683 137.186 489.453 138.094C483.233 138.994 485.537 153.339 490.338 158.699Z" fill="#282828"/>
<path d="M490.864 158.956C490.864 158.956 507.783 144.556 502.189 141.683C496.596 138.819 490.09 151.815 490.864 158.956Z" fill="#282828"/>
<path d="M490.43 158.873C490.43 158.873 512.657 159.947 510.565 154.037C508.464 148.126 494.78 153.146 490.43 158.873Z" fill="#282828"/>
<path d="M256.996 306.127C256.84 306.292 248.721 314.654 244.003 328.072C237.728 345.933 240.124 363.995 251.108 381.764C251.219 381.948 251.32 382.14 251.394 382.333C251.403 382.361 251.421 382.388 251.431 382.425C257.282 396.174 216.027 397.532 224.099 387.161C228.568 381.425 236.429 380.553 242.566 380.92C230.319 358.176 232.955 338.333 237.562 325.383C242.879 310.468 251.744 301.456 252.113 301.079C253.476 299.712 255.679 299.73 257.024 301.125C258.37 302.511 258.36 304.76 256.996 306.127Z" fill="#282828"/>
<path d="M326.431 308.688C326.588 308.853 334.706 317.214 339.425 330.633C345.7 348.494 343.304 366.556 332.32 384.325C332.209 384.508 332.108 384.701 332.034 384.894C332.025 384.921 332.006 384.949 331.997 384.986C326.146 398.735 367.401 400.093 359.329 389.722C354.86 383.985 346.999 383.113 340.862 383.481C353.109 360.737 350.473 340.894 345.866 327.944C340.549 313.029 331.684 304.016 331.315 303.64C329.952 302.272 327.749 302.291 326.404 303.686C325.058 305.072 325.068 307.32 326.431 308.688Z" fill="#282828"/>
<path d="M430.837 244.037C427.972 274.463 403.662 297.445 375.004 298.409C372.258 298.5 369.65 299.794 367.798 301.924C355.984 315.535 338.42 323.456 319.585 321.693C310.057 320.803 301.312 317.545 293.811 312.534C290.383 310.239 285.978 310.57 282.485 312.827C272.174 319.491 259.798 322.868 246.833 321.657C225.436 319.656 207.964 305.696 199.836 286.697C198.611 283.843 196.242 281.695 193.349 280.823C167.501 273.003 149.882 247.011 152.61 218.036C154.287 200.267 163.281 185.049 176.172 175.247C177.859 173.962 179.158 172.255 179.978 170.263C189.589 146.841 212.866 131.367 238.475 133.762C251.615 134.992 263.291 140.728 272.229 149.365C276.791 153.78 283.886 153.174 287.839 148.107C299.607 133.028 318.101 124.079 338.024 125.942C364.37 128.402 384.772 148.979 389.084 174.788C389.729 178.634 392.19 181.8 395.664 183.269C418.425 192.924 433.362 217.191 430.837 244.037Z" fill="url(#paint0_radial_416_33)"/>
<path opacity="0.1" d="M206.112 294.691C200.242 284.32 198.288 272.802 199.772 261.852" stroke="#282828" stroke-width="4.6402" stroke-miterlimit="10" stroke-linecap="round" stroke-linejoin="round"/>
<path opacity="0.1" d="M381.528 159.672C387.223 170.144 388.973 181.69 387.306 192.621" stroke="#282828" stroke-width="4.6402" stroke-miterlimit="10" stroke-linecap="round" stroke-linejoin="round"/>
<path opacity="0.1" d="M300.777 138.792C300.049 137.874 298.703 137.718 297.773 138.443C289.811 144.712 283.904 152.871 280.412 162.251C275.85 153.367 269.022 145.96 260.36 140.646C259.355 140.031 258.038 140.343 257.42 141.343C256.803 142.344 257.116 143.656 258.121 144.271C267.428 149.98 274.468 158.304 278.532 168.364C275.942 178.983 276.56 189.969 280.43 200.313C280.753 201.166 281.564 201.699 282.43 201.699C282.679 201.699 282.927 201.653 283.176 201.561C284.282 201.148 284.844 199.927 284.429 198.826C280.697 188.849 280.237 178.23 283.02 168.024C285.895 157.57 291.884 148.511 300.417 141.793C301.357 141.059 301.514 139.719 300.777 138.792Z" fill="#282828"/>
<path opacity="0.1" d="M372.903 289.295C367.77 300.051 359.449 308.275 349.598 313.369" stroke="#282828" stroke-width="4.6402" stroke-miterlimit="10" stroke-linecap="round" stroke-linejoin="round"/>
<path opacity="0.8" d="M172.956 262.017C170.975 260.393 169.169 258.557 167.482 256.602C165.851 254.611 164.312 252.509 163.004 250.269C160.378 245.8 158.433 240.88 157.337 235.786C156.203 230.692 155.964 225.424 156.48 220.275C157.023 215.126 158.406 210.06 160.719 205.48C161.401 204.131 163.059 203.58 164.414 204.259C165.538 204.828 166.109 206.058 165.879 207.233L165.87 207.279C164.976 211.804 164.432 216.283 164.377 220.752C164.377 222.983 164.423 225.222 164.681 227.425C164.865 229.637 165.234 231.83 165.685 233.997C166.598 238.338 168.035 242.551 169.915 246.607C170.874 248.626 171.942 250.609 173.104 252.555C174.274 254.5 175.573 256.364 176.9 258.263L176.946 258.337C177.812 259.576 177.508 261.283 176.264 262.146C175.251 262.871 173.887 262.779 172.956 262.017Z" fill="white"/>
<path opacity="0.8" d="M190.253 160.681C192.732 156.23 196.031 152.109 200.076 148.603C204.158 145.143 209.005 142.49 214.037 140.829C216.543 139.939 219.096 139.351 221.648 138.847C222.929 138.645 224.173 138.379 225.491 138.241C226.79 138.085 228.09 137.966 229.398 137.892C234.614 137.626 239.866 138.085 244.861 139.425C246.418 139.838 247.34 141.435 246.916 142.986C246.547 144.335 245.285 145.207 243.93 145.134H243.893C239.24 144.868 234.632 144.978 230.108 145.611C227.841 145.895 225.629 146.4 223.362 146.896C222.256 147.199 221.132 147.437 220.063 147.795L218.441 148.282L216.847 148.823C214.746 149.594 212.71 150.475 210.765 151.494C208.839 152.55 206.96 153.688 205.163 154.982C203.366 156.285 201.652 157.735 199.947 159.268C198.251 160.81 196.63 162.48 194.934 164.142L194.879 164.197C193.727 165.326 191.875 165.307 190.741 164.16C189.792 163.196 189.645 161.783 190.253 160.681Z" fill="white"/>
<path opacity="0.8" d="M310.821 134.148C313.226 132.78 315.816 131.734 318.479 130.871C321.161 130.1 323.916 129.485 326.726 129.173C329.528 128.888 332.357 128.806 335.177 128.98C337.987 129.182 340.788 129.558 343.525 130.201C346.253 130.853 348.944 131.642 351.524 132.688C354.104 133.707 356.629 134.882 359.053 136.304C363.863 139.14 368.231 142.747 371.613 147.098C372.617 148.383 372.377 150.237 371.087 151.237C370.074 152.017 368.719 152.045 367.705 151.402L367.65 151.366C363.43 148.722 359.237 146.373 354.841 144.51C353.745 144.042 352.639 143.601 351.524 143.188C350.381 142.812 349.275 142.344 348.124 142.013C345.857 141.242 343.562 140.627 341.258 140.095L339.526 139.709L337.784 139.397C336.623 139.159 335.453 139.039 334.292 138.865C331.951 138.571 329.601 138.443 327.233 138.379C324.874 138.36 322.488 138.434 320.101 138.654C317.705 138.856 315.318 139.251 312.849 139.618L312.729 139.636C311.116 139.875 309.605 138.764 309.365 137.158C309.181 135.901 309.799 134.735 310.821 134.148Z" fill="white"/>
<path opacity="0.1" d="M365.816 281.438C372.857 278.116 381.767 281.291 385.103 288.294" stroke="#282828" stroke-width="4.6402" stroke-miterlimit="10" stroke-linecap="round" stroke-linejoin="round"/>
<path opacity="0.8" d="M367.512 272.682C369.244 271.397 371.391 270.654 373.585 270.443C375.778 270.213 378.026 270.535 380.09 271.278C382.155 272.031 384.071 273.224 385.619 274.775C387.168 276.317 388.366 278.226 388.928 280.3C389.167 281.163 388.651 282.053 387.785 282.292C387.14 282.466 386.476 282.227 386.08 281.732L386.034 281.668C384.974 280.337 383.832 279.199 382.542 278.253C381.252 277.326 379.851 276.583 378.358 276.078C376.874 275.564 375.317 275.28 373.741 275.179C372.156 275.096 370.562 275.234 368.876 275.564L368.793 275.582C367.908 275.757 367.051 275.179 366.876 274.298C366.766 273.664 367.033 273.049 367.512 272.682Z" fill="white"/>
<path opacity="0.1" d="M391.591 207.765C383.814 207.371 377.474 200.368 377.87 192.621" stroke="#282828" stroke-width="4.6402" stroke-miterlimit="10" stroke-linecap="round" stroke-linejoin="round"/>
<path opacity="0.8" d="M384.616 213.832C382.432 213.942 380.211 213.474 378.202 212.575C376.184 211.684 374.368 210.344 372.885 208.729C371.401 207.105 370.249 205.177 369.549 203.084C368.858 201.001 368.628 198.734 368.987 196.596C369.171 195.503 370.213 194.76 371.309 194.943C372.221 195.1 372.894 195.834 372.986 196.715L372.995 196.797C373.161 198.413 373.548 199.946 374.166 201.377C374.783 202.818 375.64 204.149 376.681 205.315C377.723 206.49 378.967 207.472 380.34 208.243C381.713 209.014 383.215 209.537 384.809 209.84L384.883 209.849C385.979 210.051 386.698 211.106 386.486 212.198C386.32 213.135 385.528 213.795 384.616 213.832Z" fill="white"/>
<path opacity="0.8" d="M198.684 198.624C198.564 196.696 198.924 194.686 199.771 192.814C200.61 190.942 201.946 189.216 203.651 187.959C205.347 186.692 207.365 185.903 209.383 185.6C211.401 185.297 213.419 185.453 215.253 186.041C216.156 186.325 216.644 187.289 216.358 188.188C216.146 188.849 215.566 189.29 214.921 189.363L214.838 189.372C213.244 189.547 211.76 189.785 210.396 190.217C209.032 190.648 207.807 191.263 206.729 192.052C205.66 192.86 204.738 193.851 203.973 195.026C203.209 196.201 202.6 197.559 202.029 199.046L202.001 199.129C201.67 200.01 200.674 200.45 199.799 200.12C199.136 199.863 198.73 199.266 198.684 198.624Z" fill="white"/>
<path opacity="0.8" d="M175.822 206.444C176.578 204.672 177.785 203.02 179.342 201.689C180.89 200.349 182.844 199.358 184.908 198.918C186.981 198.459 189.147 198.569 191.11 199.12C193.082 199.68 194.86 200.662 196.288 201.956C197.026 202.626 197.072 203.755 196.408 204.489C195.911 205.03 195.155 205.205 194.501 204.975L194.418 204.948C192.907 204.434 191.478 204.012 190.068 203.819C188.658 203.617 187.295 203.635 185.977 203.892C184.659 204.149 183.406 204.691 182.217 205.434C181.028 206.187 179.923 207.178 178.835 208.316L178.78 208.38C178.098 209.096 176.965 209.124 176.246 208.445C175.684 207.912 175.546 207.114 175.822 206.444Z" fill="white"/>
<path opacity="0.1" d="M213.41 179.258C209.706 178.349 205.882 178.661 202.362 180.167C196.842 182.535 193.036 187.463 192.059 193.2C189.018 192.309 185.682 192.3 182.522 193.227C181.655 184.747 182.918 176.193 186.245 168.373C186.705 167.29 186.198 166.042 185.111 165.583C184.015 165.124 182.77 165.629 182.31 166.712C178.513 175.633 177.177 185.417 178.412 195.063C175.961 196.559 173.924 198.642 172.579 201.111C172.017 202.148 172.404 203.433 173.445 203.993C173.767 204.168 174.118 204.25 174.459 204.25C175.214 204.25 175.951 203.846 176.338 203.13C177.84 200.368 180.522 198.248 183.701 197.311C186.632 196.44 189.755 196.66 192.4 197.862C192.787 198.266 193.331 198.523 193.93 198.523C193.939 198.523 193.957 198.523 193.967 198.523C194.363 198.514 194.713 198.376 195.026 198.183C195.404 197.991 195.754 197.724 195.976 197.33C196.27 196.788 196.289 196.192 196.114 195.65C196.298 190.593 199.33 186.096 204.048 184.077C206.702 182.938 209.586 182.7 212.387 183.388C213.539 183.664 214.691 182.975 214.977 181.828C215.262 180.699 214.562 179.543 213.41 179.258Z" fill="#282828"/>
<path opacity="0.1" d="M219.317 252.747C221.75 260.117 217.474 268.525 210.065 270.948" stroke="#282828" stroke-width="4.6402" stroke-miterlimit="10" stroke-linecap="round" stroke-linejoin="round"/>
<path opacity="0.8" d="M227.85 254.335C228.79 256.299 229.168 258.539 229.057 260.732C228.946 262.935 228.347 265.101 227.334 267.056C226.329 269.011 224.929 270.764 223.215 272.15C221.51 273.536 219.483 274.555 217.354 275.004C216.294 275.225 215.244 274.555 215.023 273.49C214.838 272.6 215.281 271.728 216.064 271.333L216.128 271.296C217.584 270.571 218.893 269.653 220.017 268.543C221.132 267.432 222.072 266.147 222.772 264.743C223.463 263.339 223.952 261.834 224.173 260.283C224.403 258.731 224.376 257.153 224.136 255.538L224.127 255.455C223.97 254.381 224.707 253.381 225.786 253.225C226.652 253.105 227.481 253.573 227.85 254.335Z" fill="white"/>
<path opacity="0.1" d="M301.367 310.432C298.271 309.872 295.405 307.99 293.525 305.265C291.636 302.548 290.88 299.216 291.442 296.123C291.654 294.967 290.88 293.856 289.719 293.645C288.567 293.443 287.443 294.205 287.231 295.361C286.752 297.986 286.973 300.74 287.821 303.319C281.435 309.422 273.584 313.782 265.023 315.92C263.88 316.205 263.18 317.361 263.466 318.499C263.705 319.463 264.581 320.115 265.539 320.115C265.714 320.115 265.889 320.096 266.064 320.051C274.901 317.839 283.038 313.451 289.774 307.32C289.848 307.44 289.922 307.568 289.996 307.678C292.521 311.322 296.382 313.846 300.593 314.608C300.722 314.635 300.851 314.645 300.98 314.645C301.994 314.645 302.897 313.929 303.081 312.892C303.302 311.753 302.528 310.643 301.367 310.432Z" fill="#282828"/>
<path d="M251.987 222.568C256.469 218.391 256.702 211.386 252.508 206.922C248.314 202.458 241.281 202.226 236.799 206.403C232.318 210.58 232.084 217.585 236.278 222.049C240.472 226.512 247.505 226.745 251.987 222.568Z" fill="#282828"/>
<path d="M244.482 211.758C244.399 213.841 242.639 215.466 240.547 215.383C238.456 215.301 236.825 213.548 236.908 211.464C236.991 209.381 238.751 207.756 240.842 207.839C242.934 207.912 244.565 209.674 244.482 211.758Z" fill="#DDEBD2"/>
<path d="M333.013 220.658C337.494 216.48 337.728 209.476 333.534 205.012C329.34 200.548 322.307 200.315 317.825 204.493C313.343 208.67 313.11 215.675 317.304 220.138C321.498 224.602 328.531 224.835 333.013 220.658Z" fill="#282828"/>
<path d="M325.509 209.849C325.426 211.932 323.666 213.557 321.574 213.474C319.483 213.392 317.851 211.639 317.934 209.555C318.017 207.472 319.777 205.847 321.869 205.93C323.961 206.012 325.592 207.765 325.509 209.849Z" fill="#DDEBD2"/>
<path d="M301.671 239.457C301.56 241.669 301.367 244.707 300.703 247.855C299.164 255.06 295.147 262.788 283.978 262.238C279.048 261.99 275.574 260.429 273.15 258.162C267.345 252.729 267.594 243.239 268.469 238.191C268.773 236.41 270.312 235.125 272.082 235.162L275.316 235.226L294.317 235.603L298.197 235.676C300.196 235.704 301.772 237.411 301.671 239.457Z" fill="#7A1B0F"/>
<path d="M300.703 247.846C299.165 255.051 295.147 262.779 283.978 262.228C279.048 261.981 275.574 260.42 273.151 258.153C277.214 253.647 286.245 246.213 300.703 247.846Z" fill="#BF4667"/>
<path d="M285.185 263.183C284.771 263.183 284.356 263.174 283.932 263.155C278.237 262.871 273.888 260.861 271.013 257.171C265.88 250.591 267.087 240.853 267.575 238.026C267.962 235.777 269.87 234.18 272.109 234.226L298.224 234.74C299.441 234.767 300.574 235.272 301.404 236.181C302.233 237.08 302.648 238.264 302.592 239.494C302.27 246.121 301.219 254.372 295.893 259.31C293.119 261.861 289.526 263.165 285.185 263.183ZM271.989 236.08C270.69 236.089 269.593 237.025 269.363 238.338C268.902 240.972 267.769 250.031 272.432 256.006C274.975 259.264 278.873 261.044 284.024 261.301C288.438 261.522 292.014 260.384 294.658 257.933C299.487 253.454 300.455 245.689 300.759 239.412C300.795 238.677 300.547 237.98 300.058 237.447C299.561 236.906 298.897 236.603 298.169 236.594L272.054 236.08C272.035 236.08 272.008 236.08 271.989 236.08Z" fill="#7A1B0F"/>
</g>
<defs>
<radialGradient id="paint0_radial_416_33" cx="0" cy="0" r="1" gradientUnits="userSpaceOnUse" gradientTransform="translate(324.867 228.937) scale(127.528 127.018)">
<stop offset="0.000984618" stop-color="#F3E9F3"/>
<stop offset="1" stop-color="#FFE37B"/>
</radialGradient>
<clipPath id="clip0_416_33">
<rect width="580" height="469" fill="white"/>
</clipPath>
</defs>
</svg>
