<?xml version="1.0" encoding="UTF-8"?>
<svg id="Capa_1" data-name="Capa 1" xmlns="http://www.w3.org/2000/svg" xmlns:xlink="http://www.w3.org/1999/xlink" viewBox="0 0 580 469">
  <defs>
    <style>
      .cls-1, .cls-2, .cls-3, .cls-4, .cls-5, .cls-6, .cls-7, .cls-8 {
        fill: none;
      }

      .cls-9 {
        clip-path: url(#clippath);
      }

      .cls-10, .cls-11 {
        fill: #f4d483;
      }

      .cls-12 {
        fill: #fff;
      }

      .cls-13 {
        fill: #8066a9;
      }

      .cls-14 {
        fill: #494949;
      }

      .cls-2 {
        stroke: #3d2b56;
        stroke-width: 2.5px;
      }

      .cls-2, .cls-3, .cls-4, .cls-5, .cls-6, .cls-7, .cls-8 {
        stroke-linecap: round;
        stroke-linejoin: round;
      }

      .cls-2, .cls-15 {
        isolation: isolate;
        opacity: .1;
      }

      .cls-3 {
        stroke: #b6b6b6;
        stroke-width: 1.77px;
      }

      .cls-4 {
        stroke: #8066a9;
      }

      .cls-4, .cls-5 {
        stroke-width: 7.09px;
      }

      .cls-16 {
        opacity: .8;
      }

      .cls-11 {
        fill-rule: evenodd;
      }

      .cls-5, .cls-6, .cls-7, .cls-8 {
        stroke: #b1aeba;
      }

      .cls-15 {
        fill: #3d2b56;
      }

      .cls-6 {
        stroke-dasharray: 0 0 0 0 0 0 10.6 10.6;
      }

      .cls-6, .cls-7 {
        stroke-width: 1.74px;
      }

      .cls-8 {
        stroke-width: 2.31px;
      }

      .cls-17 {
        fill: url(#Degradado_sin_nombre);
      }
    </style>
    <clipPath id="clippath">
      <rect class="cls-1" width="580" height="469"/>
    </clipPath>
    <radialGradient id="Degradado_sin_nombre" data-name="Degradado sin nombre" cx="325.55" cy="228.2" fx="325.55" fy="228.2" r="119.88" gradientTransform="translate(0 470) scale(1 -1)" gradientUnits="userSpaceOnUse">
      <stop offset="0" stop-color="#ead8ea"/>
      <stop offset="1" stop-color="#ffe37b"/>
    </radialGradient>
  </defs>
  <g class="cls-9">
    <g>
      <path class="cls-13" d="M293.77,341.7c-64.82,0-117.55-52.52-117.55-117.08s52.73-117.08,117.55-117.08,117.55,52.52,117.55,117.08-52.73,117.08-117.55,117.08h0Zm0-232.79c-64.06,0-116.19,51.91-116.19,115.73s52.12,115.73,116.19,115.73,116.19-51.91,116.19-115.73-52.12-115.73-116.19-115.73Z"/>
      <path class="cls-8" d="M293.64,340.29c64.24,0,116.32-51.87,116.32-115.85s-52.08-115.86-116.32-115.86-116.32,51.87-116.32,115.86,52.08,115.85,116.32,115.85Z"/>
      <path class="cls-4" d="M488.76,222.57c0,105.34-85.9,190.72-191.86,190.72S105.03,327.9,105.03,222.57,190.93,31.85,296.9,31.85"/>
      <path class="cls-5" d="M488.76,222.57c0,105.34-85.9,190.72-191.86,190.72S105.03,327.9,105.03,222.57,190.93,31.85,296.9,31.85"/>
      <path class="cls-7" d="M293.6,439.3c-1.64,0-3.27-.02-4.9-.05"/>
      <path class="cls-6" d="M272.45,438.28c-109.12-10.58-194.39-102.2-194.39-213.65S167.59,17.06,280.56,10.35"/>
      <path class="cls-7" d="M288.7,10.01c1.63-.04,3.26-.06,4.9-.06"/>
      <path class="cls-5" d="M123.89,221.36c-1.13-94.08,74.68-171.27,169.33-172.4s172.3,74.22,173.42,168.32"/>
      <path class="cls-3" d="M293.22,49.05c94.46-1.13,171.96,74.38,173.09,168.65s-74.52,171.61-168.99,172.73"/>
      <path class="cls-5" d="M294.03,75.86c81.25-.97,147.91,63.97,148.89,145.06,.98,81.08-64.1,147.6-145.35,148.58"/>
      <path class="cls-10" d="M511.73,371.93c-1.87,0-3.39,1.52-3.39,3.38s1.52,3.38,3.39,3.38,3.39-1.52,3.39-3.38-1.52-3.38-3.39-3.38h0Z"/>
      <path class="cls-10" d="M64.32,71.44l1.6-10.42h-10.04v-6.76c0-2.85,1.4-5.63,5.9-5.63h4.56v-8.87s-4.14-.71-8.1-.71c-8.27,0-13.67,4.99-13.67,14.02v7.94h-9.19v10.42h9.19v25.18h11.31v-25.18h8.44Z"/>
      <path class="cls-10" d="M472.97,0c-12.04,0-21.81,9.73-21.81,21.72,0,10.22,15.86,28.74,20.53,33.97,.68,.76,1.88,.76,2.56,0,4.67-5.23,20.53-23.73,20.53-33.97C494.78,9.72,485.01,0,472.97,0Zm0,31.42c-5.94,0-10.78-4.82-10.78-10.74s4.84-10.74,10.78-10.74,10.78,4.82,10.78,10.74-4.84,10.74-10.78,10.74Z"/>
      <path class="cls-10" d="M526.52,218.98l20.08,22.7c1.14,1.3,2.78,2.03,4.52,2.03s3.37-.74,4.51-2.03l19.73-22.3c.17-.18,.36-.33,.56-.44-.84-.37-1.76-.57-2.73-.57h-44.16c-.93,0-1.82,.18-2.62,.52,.03,.04,.06,.05,.1,.09h0Z"/>
      <path class="cls-10" d="M578.96,221.55c-.09,.23-.21,.45-.39,.65l-19.74,22.3c-1.95,2.21-4.77,3.48-7.73,3.48s-5.77-1.27-7.73-3.48l-20.08-22.7s-.07-.1-.1-.15c-.62,1.03-.99,2.22-.99,3.5v30.72c0,3.75,3.05,6.79,6.82,6.79h44.16c3.77,0,6.82-3.04,6.82-6.79v-30.72c0-1.32-.38-2.56-1.04-3.61h0Z"/>
      <path class="cls-10" d="M0,305.77l4.15-15.4c-2.35-4.21-3.58-8.94-3.58-13.73,0-15.68,12.81-28.43,28.55-28.43s28.55,12.76,28.55,28.43-12.81,28.43-28.55,28.43c-4.73,0-9.39-1.18-13.56-3.44L0,305.77h0Zm16.31-9.92l.98,.58c3.59,2.13,7.68,3.26,11.81,3.26,12.76,0,23.15-10.34,23.15-23.05s-10.39-23.06-23.15-23.06-23.15,10.34-23.15,23.06c0,4.19,1.17,8.33,3.38,11.95l.6,.98-2.31,8.6,8.69-2.31h0Z"/>
      <path class="cls-11" d="M39.73,280.59c-1.18-.7-2.7-1.48-4.09-.92-1.06,.43-1.74,2.09-2.42,2.94-.35,.43-.77,.51-1.32,.29-3.99-1.58-7.04-4.23-9.24-7.88-.37-.57-.3-1.02,.15-1.54,.66-.78,1.5-1.66,1.68-2.72,.18-1.05-.31-2.28-.75-3.21-.55-1.19-1.18-2.9-2.38-3.57-1.11-.62-2.56-.27-3.55,.52-1.7,1.38-2.52,3.53-2.5,5.67,0,.61,.08,1.21,.22,1.8,.34,1.41,1,2.73,1.73,3.98,.55,.94,1.16,1.86,1.82,2.74,2.13,2.88,4.78,5.39,7.86,7.27,1.54,.94,3.19,1.75,4.9,2.32,1.92,.63,3.63,1.29,5.7,.9,2.17-.41,4.31-1.74,5.17-3.83,.26-.61,.39-1.3,.24-1.95-.29-1.36-2.13-2.16-3.23-2.81h0Z"/>
      <path class="cls-10" d="M496.67,376.26c-7.85,0-14.24,6.36-14.24,14.18s6.39,14.18,14.24,14.18,14.24-6.36,14.24-14.18-6.4-14.18-14.24-14.18Zm0,23.26c-5.03,0-9.11-4.08-9.11-9.08s4.09-9.08,9.11-9.08,9.11,4.08,9.11,9.08-4.09,9.08-9.11,9.08Z"/>
      <path class="cls-10" d="M507.97,419.22h-23.08c-9.57,0-17.36-7.76-17.36-17.29v-22.98c0-9.54,7.79-17.29,17.36-17.29h23.08c9.57,0,17.36,7.76,17.36,17.29v22.98c0,9.54-7.8,17.29-17.36,17.29h0Zm-23.08-52.15c-6.57,0-11.92,5.32-11.92,11.88v22.98c0,6.54,5.35,11.88,11.92,11.88h23.08c6.57,0,11.92-5.32,11.92-11.88v-22.98c0-6.54-5.34-11.88-11.92-11.88h-23.08Z"/>
      <path class="cls-10" d="M128.63,434.12c6.29-2.61,9.27-9.8,6.65-16.07-2.62-6.26-9.84-9.23-16.13-6.62-6.29,2.61-9.27,9.8-6.65,16.07,2.62,6.26,9.84,9.23,16.14,6.62h0Z"/>
      <path class="cls-10" d="M123.88,439.3c-12.64,0-22.89,10.21-22.89,22.8,0,3.3,2.69,5.98,6.01,5.98h33.76c3.32,0,6.01-2.68,6.01-5.98,0-12.59-10.26-22.8-22.89-22.8Z"/>
      <path class="cls-10" d="M293.98,418.53c48.58,0,87.96-9.46,87.96-21.14s-39.38-21.14-87.96-21.14-87.96,9.46-87.96,21.14,39.38,21.14,87.96,21.14h0Z"/>
      <g>
        <g>
          <path class="cls-14" d="M143.51,228.18c-4.99-2.66-9.26-6.07-12.8-10.23-17.39-20.45-10.26-51.06-9.95-52.35,.5-2.06,2.57-3.33,4.64-2.84,2.06,.5,3.33,2.57,2.84,4.64-.1,.43-6.46,28.22,8.36,45.6,9.45,11.08,25.63,15.84,48.11,14.14,2.12-.16,3.96,1.43,4.12,3.54,.16,2.12-1.43,3.96-3.54,4.12-17.11,1.29-31.09-.94-41.78-6.63h0Z"/>
          <path class="cls-14" d="M135.21,152.48c-2.44,1.05-1.62,3.44-1.64,7.51-.02,4.08-7.36,6.96-7.36,6.96,0,0,8.51,6.31,13.55,0,5.18-6.49,3.26-17.83-4.55-14.47Z"/>
          <path class="cls-14" d="M124.11,163.23s-11.72-11.51-3.07-17.65c8.65-6.15,15.78,.41,16.01,6.36,0,0-2.6,3.58-7.11,.75-4.51-2.83-6.22,7.28-5.83,10.54Z"/>
          <path class="cls-14" d="M124.59,164.06s-5.19-29.42-12.01-24.03c-6.81,5.39,3.52,20.94,12.01,24.03Z"/>
          <path class="cls-14" d="M124.96,164.15s-22.17-16.89-24.54-8.39,15.64,12.14,24.54,8.39Z"/>
        </g>
        <g>
          <path class="cls-14" d="M434.19,228.16c-10.73,5.62-24.72,7.74-41.82,6.33-2.12-.17-3.69-2.03-3.51-4.15,.17-2.12,2.03-3.69,4.15-3.51,22.49,1.86,38.72-2.79,48.24-13.83,15.01-17.39,8.72-45.23,8.66-45.51-.48-2.07,.8-4.13,2.87-4.62,2.07-.48,4.13,.8,4.62,2.87,.3,1.3,7.21,31.96-10.32,52.28-3.57,4.14-7.87,7.52-12.87,10.14h-.02Z"/>
          <path class="cls-14" d="M442.78,152.16c2.43,1.07,1.59,3.45,1.58,7.53,0,4.08,7.31,7.01,7.31,7.01,0,0-8.56,6.25-13.55-.1-5.13-6.53-3.13-17.86,4.66-14.43h0Z"/>
          <path class="cls-14" d="M453.8,162.99s11.8-11.42,3.2-17.63c-8.61-6.21-15.78,.3-16.06,6.24,0,0,2.57,3.6,7.1,.8s6.17,7.32,5.76,10.59h0Z"/>
          <path class="cls-14" d="M453.32,163.82s5.41-29.38,12.18-23.94-3.67,20.92-12.18,23.94Z"/>
          <path class="cls-14" d="M452.95,163.91s22.29-16.73,24.6-8.22-15.73,12.03-24.6,8.22Z"/>
        </g>
        <g>
          <g>
            <path class="cls-14" d="M241.89,357.21c-15.74,0-25.67-4.37-29.62-13.07-4.68-10.31-2.24-20.91,7.05-30.66,6.58-6.9,14.32-10.94,14.65-11.1,1.89-.98,4.22-.23,5.2,1.66s.24,4.22-1.65,5.19h0c-.26,.14-26.3,13.91-18.22,31.73,7.86,17.33,59.93,3.84,77.54-2.26,2.01-.69,4.21,.37,4.91,2.38s-.37,4.21-2.38,4.91c-.74,.26-18.34,6.31-37.64,9.43-7.4,1.2-14.01,1.8-19.83,1.8h0Z"/>
            <path class="cls-14" d="M290.11,343.4s14.14-11.41,26.73-11.18,17.71,3.32,19.53,6.11c1.82,2.79-3.77,13.58-21.75,10.7-17.98-2.88-24.52-5.64-24.52-5.64h0Z"/>
          </g>
          <g>
            <path class="cls-14" d="M347.64,357.17c-6.07,0-13.03-.68-20.87-2.06-19.26-3.37-36.78-9.65-37.52-9.92-2-.72-3.04-2.93-2.32-4.94,.72-2,2.93-3.04,4.94-2.32,17.54,6.32,69.42,20.48,77.51,3.25,8.31-17.71-17.55-31.82-17.81-31.96-1.88-1-2.59-3.34-1.58-5.22,1-1.88,3.33-2.59,5.21-1.59,.32,.17,8.02,4.31,14.5,11.29,9.17,9.87,11.47,20.5,6.66,30.75-3.97,8.45-13.6,12.7-28.72,12.7v.02Z"/>
            <path class="cls-14" d="M298.54,342.74s-14-11.59-26.59-11.52-17.75,3.1-19.61,5.86c-1.86,2.77,3.59,13.63,21.61,10.98,18.02-2.65,24.59-5.32,24.59-5.32Z"/>
          </g>
        </g>
        <g>
          <path class="cls-17" d="M425.16,256.05c-2.69,28.72-25.54,50.41-52.49,51.32-2.58,.09-5.03,1.31-6.77,3.32-11.11,12.85-27.62,20.32-45.32,18.66-8.95-.84-17.18-3.92-24.23-8.65-3.22-2.16-7.36-1.85-10.64,.27-9.69,6.29-21.32,9.48-33.52,8.33-20.12-1.89-36.54-15.06-44.18-32.99-1.15-2.7-3.38-4.72-6.1-5.55-24.3-7.38-40.86-31.91-38.3-59.26,1.57-16.77,10.03-31.13,22.15-40.38,1.58-1.21,2.81-2.82,3.58-4.7,9.03-22.1,30.91-36.71,54.99-34.45,12.36,1.16,23.33,6.57,31.73,14.73,4.29,4.16,10.96,3.6,14.68-1.18,11.06-14.23,28.45-22.68,47.17-20.92,24.77,2.32,43.94,21.74,48,46.1,.6,3.63,2.92,6.62,6.18,8.01,21.4,9.11,35.44,32.01,33.07,57.34h0Z"/>
          <path class="cls-2" d="M213.92,303.86c-5.52-9.79-7.36-20.66-5.96-31"/>
          <path class="cls-2" d="M378.81,176.43c5.35,9.88,7,20.78,5.43,31.09"/>
          <path class="cls-15" d="M302.91,156.72c-.68-.87-1.95-1.02-2.82-.33-7.48,5.92-13.04,13.62-16.32,22.47-4.29-8.38-10.71-15.38-18.85-20.39-.94-.58-2.18-.29-2.76,.66-.58,.95-.29,2.18,.66,2.76,8.75,5.39,15.36,13.25,19.19,22.73-2.43,10.02-1.85,20.39,1.78,30.15,.3,.81,1.07,1.31,1.88,1.31,.23,0,.47-.04,.7-.13,1.04-.39,1.57-1.55,1.18-2.59-3.51-9.42-3.94-19.44-1.32-29.07,2.7-9.86,8.34-18.42,16.35-24.76,.87-.69,1.02-1.95,.33-2.82h0Z"/>
          <path class="cls-2" d="M370.7,298.77c-4.83,10.15-12.65,17.91-21.91,22.72"/>
          <g class="cls-16">
            <path class="cls-12" d="M183.45,272.35c-14.21-12.74-19.04-34.97-11.29-52.37,.36-.81,1.3-1.17,2.11-.81,.73,.32,1.1,1.13,.9,1.87-2.19,8.48-2.58,17.31-.74,25.86,1.76,8.54,5.85,16.48,11.33,23.25,1.23,1.51-.85,3.51-2.31,2.2h0Z"/>
          </g>
          <g class="cls-16">
            <path class="cls-12" d="M199.84,177.99c5.01-8.23,12.8-14.95,22.02-17.93,9.08-3.07,18.96-3.88,28.3-1.74,.92,.21,1.49,1.12,1.28,2.03-.19,.85-.99,1.41-1.84,1.31-4.44-.46-8.88-.44-13.26,.09-8.66,1.09-17.24,3.76-24.23,9.08-3.46,2.62-6.58,5.78-9.56,9.17-1.37,1.54-3.81-.27-2.72-2.03h0v.02Z"/>
          </g>
          <g class="cls-16">
            <path class="cls-12" d="M312.71,153.31c18.5-8.9,42.53-3.05,56.07,12.02,.62,.71,.55,1.8-.16,2.42-.62,.54-1.53,.56-2.16,.08-3.81-2.8-7.8-5.24-11.99-7.18-8.38-3.81-17.56-6.09-26.79-5.97-4.67,.06-9.27,.76-13.84,1.85-1.96,.44-2.94-2.34-1.13-3.21h0Z"/>
          </g>
          <path class="cls-2" d="M364.04,291.35c6.62-3.14,14.99-.14,18.13,6.47"/>
          <g class="cls-16">
            <path class="cls-12" d="M365.88,283.6c6.72-4.31,16.84-.58,19.38,6.92,.17,.49-.09,1.03-.58,1.2-.43,.15-.89-.03-1.11-.4-3.53-5.63-10.64-8.03-16.88-6.03-1.03,.35-1.72-1.12-.8-1.69h-.01Z"/>
          </g>
          <path class="cls-2" d="M388.27,221.82c-7.31-.37-13.27-6.98-12.9-14.3"/>
          <g class="cls-16">
            <path class="cls-12" d="M381.75,226.83c-7.96,.15-15.03-7.6-14.01-15.53,.08-.64,.67-1.1,1.31-1.02,.59,.07,1.02,.57,1.03,1.14,.13,6.48,5.33,12.34,11.8,13.07,1.43,.2,1.3,2.31-.14,2.34h.01Z"/>
          </g>
          <g class="cls-16">
            <path class="cls-12" d="M207.53,213.26c-.11-5.48,4.13-10.77,9.64-11.54,1.25-.22,6.49-.6,6,1.38-.11,.46-.52,.77-.98,.76-3.08,.03-6,.69-8.24,2.39-2.26,1.68-3.68,4.29-4.46,7.25-.26,1.13-1.98,.91-1.95-.24h0Z"/>
          </g>
          <g class="cls-16">
            <path class="cls-12" d="M185.98,220.91c2.3-4.96,8.31-7.99,13.65-6.41,1.27,.34,6.2,2.17,4.89,3.84-.31,.39-.84,.5-1.27,.29-2.79-1.27-5.7-1.92-8.46-1.35-2.76,.55-5.16,2.34-7.06,4.73-.75,.99-2.32,0-1.76-1.1h.01Z"/>
          </g>
          <path class="cls-15" d="M220.78,194.91c-3.49-.86-7.08-.56-10.39,.86-5.19,2.23-8.77,6.88-9.69,12.3-2.86-.84-6-.84-8.96,.03-.81-8,.37-16.07,3.5-23.46,.43-1.02-.04-2.2-1.06-2.63-1.03-.43-2.2,.04-2.63,1.07-3.57,8.42-4.82,17.66-3.66,26.76-2.3,1.41-4.22,3.38-5.48,5.71-.53,.98-.16,2.2,.81,2.72,.3,.16,.63,.24,.95,.24,.71,0,1.41-.38,1.77-1.05,1.41-2.6,3.93-4.61,6.92-5.5,2.75-.82,5.69-.62,8.17,.52,.37,.38,.87,.62,1.44,.62h.03c.37,0,.7-.14,1-.32,.36-.18,.68-.43,.89-.81,.27-.51,.3-1.08,.13-1.59,.17-4.78,3.02-9.02,7.46-10.92,2.5-1.07,5.21-1.3,7.84-.65,1.08,.26,2.17-.39,2.43-1.47,.27-1.08-.39-2.17-1.47-2.43h0Z"/>
          <path class="cls-2" d="M226.33,264.27c2.29,6.96-1.74,14.89-8.69,17.18"/>
          <g class="cls-16">
            <path class="cls-12" d="M233.69,265.99c3.12,7.36-1.7,16.71-9.42,18.62-.61,.16-1.24-.22-1.39-.83-.14-.56,.16-1.13,.68-1.34,6.05-2.45,9.5-9.45,7.96-15.76-.29-1.35,1.64-1.96,2.18-.69h0Z"/>
          </g>
          <path class="cls-15" d="M303.46,318.72c-2.91-.53-5.6-2.31-7.37-4.87-1.77-2.57-2.49-5.71-1.96-8.63,.2-1.09-.52-2.14-1.62-2.34-1.09-.19-2.14,.53-2.34,1.62-.45,2.48-.25,5.07,.56,7.51-6,5.76-13.38,9.88-21.43,11.9-1.08,.27-1.73,1.36-1.46,2.44,.23,.91,1.05,1.52,1.95,1.52,.16,0,.33-.02,.49-.06,8.31-2.08,15.96-6.23,22.29-12.01,.07,.11,.14,.23,.21,.34,2.38,3.44,6.01,5.82,9.96,6.54,.12,.02,.24,.03,.36,.03,.95,0,1.8-.68,1.98-1.65,.2-1.09-.52-2.14-1.62-2.34h0Z"/>
        </g>
        <path class="cls-14" d="M291.48,240.65c-.8,0-1.62-.04-2.49-.14-10.29-1.1-14.26-9.41-14.93-13.65-.2-1.24,.66-2.41,1.9-2.61,1.24-.19,2.41,.65,2.61,1.89,.07,.4,1.6,8.84,10.9,9.83,11.55,1.24,14.18-8.45,14.29-8.86,.31-1.22,1.55-1.95,2.77-1.65,1.22,.31,1.96,1.53,1.66,2.75-1.11,4.5-5.99,12.43-16.71,12.43h0Z"/>
        <path class="cls-14" d="M329.95,231.83c-5.23,0-9.68-2.07-12.08-3.9-1-.76-1.2-2.2-.43-3.2,.76-1,2.19-1.19,3.19-.44,.39,.29,9.63,7.04,19.34-.76,.98-.79,2.42-.63,3.21,.35,.79,.98,.63,2.42-.35,3.21-4.36,3.51-8.85,4.73-12.88,4.73h0Z"/>
        <path class="cls-14" d="M252.28,230.41c-5.22-.29-9.55-2.61-11.84-4.57-.96-.82-1.07-2.26-.25-3.22s2.25-1.07,3.21-.26c.37,.31,9.21,7.57,19.35,.33,1.03-.73,2.45-.5,3.18,.53,.73,1.03,.5,2.45-.53,3.18-4.56,3.25-9.1,4.23-13.12,4h0Z"/>
      </g>
    </g>
  </g>
</svg>