<svg width="96" height="96" viewBox="0 0 96 96" fill="none" xmlns="http://www.w3.org/2000/svg">
<path d="M11.3585 55.9157H11.4193L21.3667 71.4434H27.0683V46.423H21.3667V61.9509H21.306L11.3585 46.423H5.65692V71.4434H11.3585V55.9157Z" fill="#EDB731"/>
<path d="M49.9354 46.423H44.2338V60.8894C44.2338 65.0746 42.96 66.2877 40.1699 66.2877C37.3796 66.2877 36.106 65.0746 36.106 60.8894V46.423H30.4044V62.5574C30.4044 68.7442 33.8011 71.8983 40.1699 71.8983C46.5386 71.8983 49.9354 68.7442 49.9354 62.5574V46.423Z" fill="#EDB731"/>
<path d="M53.2714 46.423V71.4434H62.7638C67.9499 71.4434 70.9524 68.5925 70.9524 64.4681C70.9524 60.4344 68.7386 58.7058 65.6146 58.1598C67.7376 57.0681 68.7386 55.0966 68.7386 52.7918C68.7386 48.0305 65.3418 46.423 61.0352 46.423H53.2714ZM58.973 56.2188V50.8206H59.4278C61.9147 50.8206 63.2189 51.5786 63.2189 53.368C63.2189 55.4607 61.8843 56.2188 59.4278 56.2188H58.973ZM58.973 67.0458V61.1321H60.7623C63.4614 61.1321 64.9474 61.9509 64.9474 64.2557C64.9474 66.227 63.4614 67.0458 60.7623 67.0458H58.973Z" fill="#EDB731"/>
<path d="M87.784 46.423H73.4696V71.4434H87.784V66.4394H79.1712V61.4049H87.42V56.4007H79.1712V51.427H87.784V46.423Z" fill="#EDB731"/>
<path d="M9.30409 85.3696H11.397L16.2896 73.7038H13.2918L10.3507 81.368L7.40929 73.7038H4.41144L9.30409 85.3696Z" fill="#3B3B3B"/>
<path d="M15.7665 79.5298C15.7665 82.9376 18.1986 85.5824 21.649 85.5824C25.0003 85.5824 27.5174 82.9376 27.5174 79.5298C27.5174 76.1219 24.8871 73.4917 21.649 73.4917C18.439 73.4917 15.7665 76.1219 15.7665 79.5298ZM18.637 79.5298C18.637 77.7905 19.5986 76.0511 21.649 76.0511C23.7135 76.0511 24.6468 77.7905 24.6468 79.5298C24.6468 81.2688 23.77 83.0088 21.649 83.0088C19.4712 83.0088 18.637 81.2688 18.637 79.5298Z" fill="#3B3B3B"/>
<path d="M31.3496 73.7038H28.691V85.3696H35.3654V83.0368H31.3496V73.7038Z" fill="#3B3B3B"/>
<path d="M42.8178 73.7038H40.3573L35.6484 85.3696H38.5048L39.3675 83.0368H43.8076L44.6702 85.3696H47.5267L42.8178 73.7038ZM42.9027 80.7032H40.2724L41.5734 77.3096H41.6017L42.9027 80.7032Z" fill="#3B3B3B"/>
<path d="M47.9791 73.7038V85.3696H51.3587C54.5686 85.3696 57.2412 82.9376 57.2412 79.5298C57.2412 76.136 54.5545 73.7038 51.3587 73.7038H47.9791ZM50.6374 82.9944V76.0795H51.0477C53.0273 76.0795 54.3707 77.5926 54.3707 79.5438C54.3566 81.4952 53.0132 82.9944 51.0477 82.9944H50.6374Z" fill="#3B3B3B"/>
<path d="M57.8916 79.5298C57.8916 82.9376 60.3239 85.5824 63.7743 85.5824C67.1257 85.5824 69.6427 82.9376 69.6427 79.5298C69.6427 76.1219 67.0125 73.4917 63.7743 73.4917C60.5642 73.4917 57.8916 76.1219 57.8916 79.5298ZM60.7623 79.5298C60.7623 77.7905 61.7238 76.0511 63.7743 76.0511C65.8388 76.0511 66.7722 77.7905 66.7722 79.5298C66.7722 81.2688 65.8953 83.0088 63.7743 83.0088C61.5966 83.0088 60.7623 81.2688 60.7623 79.5298Z" fill="#3B3B3B"/>
<path d="M70.8163 73.7038V85.3696H73.4749V80.76L77.0383 85.3696H80.4176L76.402 80.548C77.8302 80.0952 78.7917 78.9217 78.7917 77.1682C78.7917 74.8775 77.1515 73.7038 74.9878 73.7038H70.8163ZM73.4749 78.8794V75.8249H73.7859C74.7899 75.8249 75.9919 75.8957 75.9919 77.3521C75.9919 78.8086 74.7899 78.8794 73.7859 78.8794H73.4749Z" fill="#3B3B3B"/>
<path d="M86.8664 73.7038H84.4056L79.6967 85.3696H82.5528L83.416 83.0368H87.856L88.7184 85.3696H91.5752L86.8664 73.7038ZM86.9512 80.7032H84.3208L85.6216 77.3096H85.6496L86.9512 80.7032Z" fill="#3B3B3B"/>
<path d="M23.4661 93.848L23.0315 92.4208H20.8453L20.4107 93.848H19.0408L21.1571 87.8272H22.7116L24.836 93.848H23.4661ZM22.728 91.3544L22.2931 89.96C22.2658 89.8672 22.2296 89.748 22.1845 89.6008C22.1393 89.4552 22.0942 89.3064 22.0492 89.1544C22.004 89.0024 21.9679 88.8704 21.9404 88.7584C21.9131 88.8704 21.8755 89.0096 21.8276 89.1744C21.7799 89.34 21.7341 89.4968 21.6902 89.644C21.6465 89.792 21.615 89.8968 21.5959 89.96L21.1652 91.3544H22.728Z" fill="#EDB731"/>
<path d="M26.8328 95.8656C26.193 95.8656 25.7041 95.7544 25.3666 95.532C25.0287 95.3088 24.8601 94.9968 24.8601 94.5944C24.8601 94.3184 24.9462 94.0872 25.1184 93.9016C25.2907 93.7152 25.5436 93.5832 25.8772 93.5032C25.7487 93.4488 25.6365 93.3592 25.5409 93.2352C25.4451 93.1104 25.3972 92.9784 25.3972 92.8392C25.3972 92.664 25.4479 92.5184 25.5491 92.4024C25.6501 92.2864 25.7966 92.172 25.9879 92.06C25.7472 91.956 25.5564 91.7896 25.4157 91.56C25.275 91.3304 25.2046 91.0592 25.2046 90.7472C25.2046 90.4136 25.2777 90.1304 25.4239 89.8968C25.5703 89.6624 25.7835 89.484 26.0638 89.3616C26.344 89.2384 26.6851 89.1768 27.087 89.1768C27.1719 89.1768 27.2702 89.1824 27.3823 89.1936C27.4945 89.204 27.5976 89.216 27.6919 89.2304C27.7863 89.244 27.8499 89.2544 27.8827 89.2632H29.4822V89.8984L28.7643 90.0832C28.8301 90.184 28.8793 90.292 28.912 90.4072C28.9448 90.5224 28.9614 90.644 28.9614 90.772C28.9614 91.264 28.7898 91.648 28.4465 91.9224C28.1035 92.1976 27.6271 92.3344 27.0172 92.3344C26.8723 92.3264 26.7358 92.316 26.6072 92.3016C26.5442 92.3512 26.4965 92.4032 26.4637 92.4576C26.4307 92.5128 26.4143 92.5704 26.4143 92.6304C26.4143 92.6904 26.4398 92.74 26.4902 92.78C26.5408 92.8192 26.6175 92.8496 26.72 92.8704C26.8225 92.8904 26.9503 92.9008 27.1034 92.9008H27.8827C28.3858 92.9008 28.7692 93.0088 29.0331 93.2248C29.2969 93.4408 29.4288 93.7576 29.4288 94.176C29.4288 94.712 29.2053 95.128 28.7583 95.4232C28.3112 95.7184 27.6695 95.8656 26.8328 95.8656ZM26.8859 95.0496C27.184 95.0496 27.4403 95.0216 27.655 94.9656C27.8697 94.9096 28.0343 94.8304 28.1493 94.728C28.2642 94.6256 28.3216 94.5032 28.3216 94.3608C28.3216 94.2456 28.288 94.1552 28.2212 94.088C28.1541 94.0208 28.0529 93.9736 27.9176 93.9464C27.7821 93.9192 27.6092 93.9056 27.3987 93.9056H26.7507C26.5975 93.9056 26.4602 93.9304 26.3385 93.9792C26.2169 94.0288 26.1205 94.0976 26.0495 94.1864C25.9783 94.2752 25.9427 94.3784 25.9427 94.496C25.9427 94.668 26.0255 94.804 26.1908 94.9024C26.3563 95.0008 26.5881 95.0496 26.8859 95.0496ZM27.087 91.572C27.3223 91.572 27.4945 91.4992 27.6038 91.3544C27.7132 91.2096 27.7678 91.0128 27.7678 90.764C27.7678 90.488 27.7111 90.2808 27.5976 90.1424C27.4842 90.0048 27.3139 89.936 27.087 89.936C26.8574 89.936 26.6851 90.0048 26.5703 90.1424C26.4553 90.2808 26.3979 90.488 26.3979 90.764C26.3979 91.0128 26.4547 91.2096 26.5681 91.3544C26.6818 91.4992 26.8547 91.572 27.087 91.572Z" fill="#EDB731"/>
<path d="M32.1269 89.1768C32.5508 89.1768 32.9157 89.2584 33.222 89.4208C33.5283 89.5832 33.7648 89.8192 33.9316 90.128C34.0984 90.4376 34.1818 90.8144 34.1818 91.26V91.8672H31.2247C31.2384 92.22 31.3444 92.4968 31.5425 92.6976C31.7408 92.8984 32.0162 92.9992 32.3689 92.9992C32.6616 92.9992 32.9296 92.9688 33.1728 92.9088C33.4161 92.8488 33.6663 92.7584 33.9234 92.6384V93.6064C33.6964 93.7184 33.4592 93.8 33.2117 93.852C32.9643 93.904 32.6643 93.9304 32.3116 93.9304C31.8521 93.9304 31.4455 93.8456 31.0915 93.676C30.7373 93.5064 30.4599 93.248 30.2588 92.9008C30.058 92.5536 29.9574 92.116 29.9574 91.5888C29.9574 91.0528 30.0484 90.6064 30.2302 90.2496C30.412 89.8928 30.6655 89.6248 30.9909 89.4456C31.3163 89.2664 31.695 89.1768 32.1269 89.1768ZM32.1351 90.0664C31.8919 90.0664 31.6902 90.1448 31.5304 90.3008C31.3703 90.456 31.278 90.7008 31.2535 91.0344H33.0088C33.006 90.8488 32.9727 90.6832 32.9084 90.5384C32.8441 90.3936 32.7483 90.2784 32.6212 90.1936C32.4941 90.1088 32.3321 90.0664 32.1351 90.0664Z" fill="#EDB731"/>
<path d="M37.8026 89.1768C38.2921 89.1768 38.6858 89.3104 38.9838 89.5768C39.2817 89.8432 39.4309 90.2704 39.4309 90.8584V93.848H38.1799V91.1696C38.1799 90.8416 38.1205 90.5944 38.0016 90.428C37.8825 90.2608 37.6959 90.1776 37.4418 90.1776C37.0588 90.1776 36.7977 90.3072 36.6584 90.5672C36.519 90.8272 36.4492 91.2016 36.4492 91.6912V93.848H35.1982V89.2632H36.1538L36.3221 89.8496H36.3918C36.4902 89.6912 36.6126 89.5624 36.7588 89.464C36.905 89.3656 37.0678 89.2928 37.2468 89.2464C37.426 89.2 37.6113 89.1768 37.8026 89.1768Z" fill="#EDB731"/>
<path d="M42.5799 93.9304C42.1262 93.9304 41.7393 93.8472 41.4194 93.6824C41.0994 93.5168 40.8562 93.26 40.6894 92.9128C40.5226 92.5656 40.4392 92.1216 40.4392 91.58C40.4392 91.0192 40.5341 90.5624 40.7242 90.208C40.9141 89.8544 41.178 89.5936 41.5158 89.4272C41.8534 89.26 42.2451 89.1768 42.6909 89.1768C43.0078 89.1768 43.282 89.2072 43.513 89.2688C43.7442 89.3304 43.9458 89.404 44.118 89.4888L43.749 90.456C43.5522 90.3768 43.369 90.312 43.1994 90.2616C43.0299 90.2112 42.8604 90.1856 42.6909 90.1856C42.472 90.1856 42.2902 90.2368 42.1453 90.3392C42.0004 90.4424 41.8924 90.596 41.8212 90.8008C41.7502 91.0056 41.7146 91.2632 41.7146 91.572C41.7146 91.8752 41.7529 92.1272 41.8296 92.3264C41.9061 92.5264 42.0167 92.6744 42.1617 92.7712C42.3066 92.8688 42.4829 92.9176 42.6909 92.9176C42.9505 92.9176 43.1816 92.8824 43.3838 92.8128C43.5862 92.7432 43.783 92.6448 43.9746 92.5192V93.5896C43.783 93.7104 43.5828 93.7968 43.3736 93.8504C43.1646 93.9032 42.8998 93.9304 42.5799 93.9304Z" fill="#EDB731"/>
<path d="M46.2871 89.2632V93.848H45.0363V89.2632H46.2871ZM45.6638 87.4664C45.8497 87.4664 46.0095 87.5096 46.1435 87.596C46.2775 87.6816 46.3446 87.8424 46.3446 88.0776C46.3446 88.3104 46.2775 88.4704 46.1435 88.5592C46.0095 88.648 45.8497 88.6928 45.6638 88.6928C45.4751 88.6928 45.3144 88.648 45.1819 88.5592C45.0491 88.4704 44.9829 88.3104 44.9829 88.0776C44.9829 87.8424 45.0491 87.6816 45.1819 87.596C45.3144 87.5096 45.4751 87.4664 45.6638 87.4664Z" fill="#EDB731"/>
<path d="M49.4773 89.1688C50.0926 89.1688 50.5642 89.3024 50.8923 89.5704C51.2204 89.8384 51.3845 90.2456 51.3845 90.7928V93.848H50.5108L50.2688 93.2248H50.236C50.1047 93.3888 49.9709 93.5232 49.8342 93.6264C49.6975 93.7304 49.5403 93.8072 49.3626 93.8568C49.1849 93.9056 48.9687 93.9304 48.7145 93.9304C48.4438 93.9304 48.2011 93.8784 47.9864 93.7744C47.7719 93.6704 47.603 93.5112 47.4799 93.2968C47.3569 93.0816 47.2953 92.8088 47.2953 92.4784C47.2953 91.992 47.4663 91.6328 47.8081 91.4016C48.1499 91.1704 48.6624 91.0432 49.346 91.0184L50.1417 90.9936V90.7928C50.1417 90.552 50.0789 90.376 49.9531 90.264C49.8272 90.1512 49.6523 90.0952 49.4281 90.0952C49.2067 90.0952 48.9893 90.1272 48.7761 90.1896C48.5627 90.2528 48.3495 90.332 48.1363 90.428L47.7219 89.5832C47.9652 89.4544 48.2381 89.3528 48.5402 89.2792C48.8423 89.2056 49.1547 89.1688 49.4773 89.1688ZM50.1417 91.724L49.6577 91.74C49.2531 91.7512 48.9723 91.8232 48.815 91.9576C48.6578 92.0912 48.5791 92.268 48.5791 92.4864C48.5791 92.6784 48.6351 92.8136 48.7473 92.8944C48.8595 92.9752 49.0057 93.0152 49.1861 93.0152C49.4542 93.0152 49.6804 92.9368 49.8648 92.7776C50.0495 92.6192 50.1417 92.3936 50.1417 92.1008V91.724Z" fill="#EDB731"/>
<path d="M59.9288 90.7928C59.9288 91.468 59.7996 92.032 59.5412 92.4848C59.2829 92.9368 58.909 93.2776 58.4195 93.5056C57.93 93.7344 57.3408 93.848 56.6518 93.848H54.9539V87.852H56.8364C57.4651 87.852 58.0107 87.9632 58.4728 88.1864C58.9348 88.4088 59.293 88.7384 59.5473 89.1744C59.8015 89.6112 59.9288 90.1504 59.9288 90.7928ZM58.6081 90.8256C58.6081 90.3824 58.5432 90.0184 58.4134 89.7328C58.2834 89.4464 58.092 89.236 57.8391 89.0992C57.5862 88.9624 57.2738 88.8936 56.9019 88.8936H56.2254V92.7984H56.7707C57.3915 92.7984 57.8527 92.6328 58.155 92.3024C58.4571 91.9712 58.6081 91.4792 58.6081 90.8256Z" fill="#EDB731"/>
<path d="M62.3234 89.2632V93.848H61.0724V89.2632H62.3234ZM61.6998 87.4664C61.8858 87.4664 62.0458 87.5096 62.1798 87.596C62.3137 87.6816 62.3807 87.8424 62.3807 88.0776C62.3807 88.3104 62.3137 88.4704 62.1798 88.5592C62.0458 88.648 61.8858 88.6928 61.6998 88.6928C61.5112 88.6928 61.3507 88.648 61.218 88.5592C61.0854 88.4704 61.019 88.3104 61.019 88.0776C61.019 87.8424 61.0854 87.6816 61.218 87.596C61.3507 87.5096 61.5112 87.4664 61.6998 87.4664Z" fill="#EDB731"/>
<path d="M64.9763 95.8656C64.3365 95.8656 63.8478 95.7544 63.5101 95.532C63.1725 95.3088 63.0036 94.9968 63.0036 94.5944C63.0036 94.3184 63.0898 94.0872 63.262 93.9016C63.4342 93.7152 63.6872 93.5832 64.0207 93.5032C63.8922 93.4488 63.7802 93.3592 63.6844 93.2352C63.5889 93.1104 63.541 92.9784 63.541 92.8392C63.541 92.664 63.5916 92.5184 63.6926 92.4024C63.7939 92.2864 63.9401 92.172 64.1314 92.06C63.891 91.956 63.7002 91.7896 63.5594 91.56C63.4185 91.3304 63.3481 91.0592 63.3481 90.7472C63.3481 90.4136 63.4212 90.1304 63.5676 89.8968C63.7138 89.6624 63.927 89.484 64.2073 89.3616C64.4878 89.2384 64.8286 89.1768 65.2307 89.1768C65.3154 89.1768 65.4139 89.1824 65.5258 89.1936C65.6381 89.204 65.7412 89.216 65.8355 89.2304C65.93 89.244 65.9934 89.2544 66.0262 89.2632H67.6259V89.8984L66.9081 90.0832C66.9737 90.184 67.023 90.292 67.0558 90.4072C67.0886 90.5224 67.105 90.644 67.105 90.772C67.105 91.264 66.9333 91.648 66.5902 91.9224C66.247 92.1976 65.7706 92.3344 65.161 92.3344C65.016 92.3264 64.8793 92.316 64.7507 92.3016C64.6879 92.3512 64.64 92.4032 64.6073 92.4576C64.5745 92.5128 64.5581 92.5704 64.5581 92.6304C64.5581 92.6904 64.5833 92.74 64.6339 92.78C64.6846 92.8192 64.761 92.8496 64.8635 92.8704C64.9661 92.8904 65.094 92.9008 65.2471 92.9008H66.0262C66.5294 92.9008 66.913 93.0088 67.1768 93.2248C67.4406 93.4408 67.5726 93.7576 67.5726 94.176C67.5726 94.712 67.349 95.128 66.902 95.4232C66.455 95.7184 65.813 95.8656 64.9763 95.8656ZM65.0297 95.0496C65.3278 95.0496 65.5841 95.0216 65.7987 94.9656C66.0132 94.9096 66.1782 94.8304 66.2928 94.728C66.4078 94.6256 66.465 94.5032 66.465 94.3608C66.465 94.2456 66.4317 94.1552 66.3646 94.088C66.2977 94.0208 66.1966 93.9736 66.0611 93.9464C65.9258 93.9192 65.753 93.9056 65.5422 93.9056H64.8944C64.7413 93.9056 64.6039 93.9304 64.4822 93.9792C64.3604 94.0288 64.2642 94.0976 64.193 94.1864C64.122 94.2752 64.0863 94.3784 64.0863 94.496C64.0863 94.668 64.169 94.804 64.3346 94.9024C64.4999 95.0008 64.7316 95.0496 65.0297 95.0496ZM65.2307 91.572C65.4658 91.572 65.6381 91.4992 65.7475 91.3544C65.8567 91.2096 65.9115 91.0128 65.9115 90.764C65.9115 90.488 65.8548 90.2808 65.7412 90.1424C65.6278 90.0048 65.4576 89.936 65.2307 89.936C65.0009 89.936 64.8286 90.0048 64.714 90.1424C64.599 90.2808 64.5417 90.488 64.5417 90.764C64.5417 91.0128 64.5984 91.2096 64.7118 91.3544C64.8253 91.4992 64.9982 91.572 65.2307 91.572Z" fill="#EDB731"/>
<path d="M69.6307 89.2632V93.848H68.3799V89.2632H69.6307ZM69.0073 87.4664C69.1934 87.4664 69.3533 87.5096 69.4873 87.596C69.6213 87.6816 69.6881 87.8424 69.6881 88.0776C69.6881 88.3104 69.6213 88.4704 69.4873 88.5592C69.3533 88.648 69.1934 88.6928 69.0073 88.6928C68.8187 88.6928 68.6582 88.648 68.5254 88.5592C68.3928 88.4704 68.3267 88.3104 68.3267 88.0776C68.3267 87.8424 68.3928 87.6816 68.5254 87.596C68.6582 87.5096 68.8187 87.4664 69.0073 87.4664Z" fill="#EDB731"/>
<path d="M72.8744 92.9336C73.0112 92.9336 73.1444 92.92 73.2742 92.8928C73.4042 92.8656 73.5334 92.8312 73.6617 92.7896V93.7208C73.528 93.7816 73.3617 93.8312 73.1635 93.8704C72.9654 93.9104 72.7486 93.9304 72.5135 93.9304C72.24 93.9304 71.9947 93.8856 71.7772 93.7968C71.5598 93.708 71.389 93.5536 71.2647 93.3336C71.1401 93.1136 71.078 92.8064 71.078 92.4128V90.2024H70.4792V89.6728L71.1683 89.2552L71.5292 88.2872H72.3288V89.2632H73.6126V90.2024H72.3288V92.4128C72.3288 92.588 72.3788 92.7184 72.4787 92.8048C72.5784 92.8904 72.7104 92.9336 72.8744 92.9336Z" fill="#EDB731"/>
<path d="M76.4664 89.1688C77.0817 89.1688 77.5533 89.3024 77.8814 89.5704C78.2095 89.8384 78.3736 90.2456 78.3736 90.7928V93.848H77.4999L77.2579 93.2248H77.2252C77.0939 93.3888 76.9598 93.5232 76.8234 93.6264C76.6866 93.7304 76.5292 93.8072 76.3515 93.8568C76.1738 93.9056 75.9578 93.9304 75.7037 93.9304C75.4329 93.9304 75.1902 93.8784 74.9756 93.7744C74.7609 93.6704 74.5922 93.5112 74.4691 93.2968C74.346 93.0816 74.2845 92.8088 74.2845 92.4784C74.2845 91.992 74.4554 91.6328 74.7973 91.4016C75.139 91.1704 75.6516 91.0432 76.3351 91.0184L77.1309 90.9936V90.7928C77.1309 90.552 77.0681 90.376 76.9422 90.264C76.8164 90.1512 76.6414 90.0952 76.4173 90.0952C76.1958 90.0952 75.9785 90.1272 75.765 90.1896C75.5518 90.2528 75.3386 90.332 75.1254 90.428L74.7111 89.5832C74.9544 89.4544 75.2273 89.3528 75.5294 89.2792C75.8314 89.2056 76.1438 89.1688 76.4664 89.1688ZM77.1309 91.724L76.6469 91.74C76.2423 91.7512 75.9612 91.8232 75.8041 91.9576C75.647 92.0912 75.5682 92.268 75.5682 92.4864C75.5682 92.6784 75.6242 92.8136 75.7365 92.8944C75.8484 92.9752 75.9948 93.0152 76.1753 93.0152C76.4431 93.0152 76.6695 92.9368 76.854 92.7776C77.0386 92.6192 77.1309 92.3936 77.1309 92.1008V91.724Z" fill="#EDB731"/>
<path d="M80.912 87.4664H79.661V93.848H80.912V87.4664Z" fill="#EDB731"/>
<path d="M53.617 18.6435C53.4139 18.7118 52.599 17.9882 52.4572 17.8804C51.4928 17.1487 50.634 16.2761 49.8911 15.3211C47.2705 11.954 46.2069 7.58883 46.368 3.37093C46.4012 2.48004 45.9609 2.06411 45.3675 1.45933C44.5018 0.577895 43.3588 0.0275227 42.1134 0.00126451C40.0064 -0.0443197 38.0381 1.2291 36.495 2.54201C36.5168 2.52373 40.9177 4.75652 37.2993 5.21341C37.2993 5.21341 34.8319 1.95823 30.4835 4.21203C28.3593 5.31319 26.9596 7.47435 27.7983 9.88656C27.3563 10.1062 26.6866 10.2078 26.228 10.0073C25.6048 9.73504 25.6827 9.10128 25.7368 8.54208C25.7824 8.08352 25.9102 5.25017 26.7618 5.48566C26.7618 5.48566 20.7417 4.17275 18.1186 13.6423C18.1186 13.6423 17.3456 19.6344 20.4249 21.6406C20.4249 21.6406 21.4148 18.5457 22.7575 18.3408C24.0992 18.1369 24.3601 20.5587 22.6691 21.8628C20.9772 23.1679 21.5847 32.3356 28.3593 32.5272C28.1177 32.5202 28.7016 31.3115 28.8127 31.2248C29.2311 30.8956 29.7447 30.845 30.0283 31.2886C30.4871 32.0073 30.9788 32.9053 31.6914 33.3912C32.3979 33.8725 33.1715 34.1342 34.0143 34.2602C34.508 34.3338 35.0121 34.3827 35.5076 34.3119C37.1033 34.0834 37.9005 32.7662 39.1268 31.9224C39.3027 31.8025 39.4823 31.6886 39.6617 31.5758C40.1982 31.2362 40.7584 30.8842 41.3887 30.7549C42.0573 30.6183 42.7505 30.5982 43.4244 30.4984C43.1225 26.2584 43.7876 21.9434 53.617 18.6435Z" fill="#EDB731"/>
<path d="M63.7732 33.5914C61.171 37.4215 57.502 38.8622 53.0486 38.3273C49.0267 37.8452 45.8915 35.0442 45.0188 31.0013C44.2065 27.2369 45.6717 23.8223 49.3244 21.839C52.4858 20.1226 55.9572 19.496 59.5264 19.5142C60.0814 19.5178 60.7588 19.9582 61.1649 20.3957C62.0568 21.3584 63.3567 22.176 64.6528 22.4342C65.3024 22.5638 66.0036 22.5428 66.568 22.1575C66.7448 22.0386 67.2604 21.629 67.2261 21.3838C67.1788 21.04 66.1907 20.7448 65.9027 20.7501C62.8664 20.8009 61.0808 18.3763 61.9841 15.447C62.0848 15.1178 62.1024 14.2969 61.8407 14.0238C61.4808 13.6482 60.5864 14.5786 60.4357 14.9199C60.0831 15.7148 60.0184 16.6363 59.7995 17.6596C58.295 18.0842 56.7264 18.1007 55.1684 17.1518C51.0109 14.6198 49.2113 10.8971 49.5816 6.119C49.8196 3.0512 54.1216 0.530415 57.5116 1.51688C58.6521 1.84858 59.7619 2.51911 60.695 3.27009C61.5833 3.98515 62.42 4.89894 61.9256 6.30911C61.4161 7.76108 60.4446 8.64696 58.9758 9.01184C58.7072 9.0784 58.3685 8.98304 58.1513 9.1116C57.9088 9.25616 57.4301 9.50736 57.4152 9.86696C57.4003 10.2539 57.958 10.6522 58.3064 10.689C60.2668 10.8946 62.4377 9.63232 63.2139 7.55984C63.8275 5.92385 64.9076 5.80223 66.2625 6.04653C68.9224 6.52443 70.7352 8.87608 70.4708 11.4828C70.3456 12.7222 70.0183 13.783 68.4008 13.7444C67.8057 13.7305 67.1299 13.881 66.6285 14.1847C66.3518 14.3519 65.579 15.1432 65.7952 15.4915C66.1172 16.0122 67.3427 15.8356 67.8424 15.8014C68.8909 15.7314 69.9824 15.5291 71.0092 15.8503C73.5018 16.6294 74.7755 19.3401 74.1243 21.7918C73.3873 24.5646 71.017 26.0962 68.1391 25.7838C67.6683 25.7322 66.4796 25.7549 66.596 26.4622C66.6705 26.9174 67.6166 27.403 68.0315 27.3909C69.7225 27.3419 71.4048 26.9987 73.0223 26.779C73.0258 26.779 72.6328 28.1549 72.5715 28.2898C72.3396 28.7991 72.0341 29.2726 71.669 29.6972C70.9592 30.5226 70.0324 31.1519 69.0188 31.5433C67.1133 32.2785 64.1749 32.2661 62.645 30.6978C62.6345 30.6872 63.2158 29.6035 63.2569 29.4766C63.4712 28.8177 63.6392 27.9003 62.7003 28.1847C61.846 28.4438 61.4932 29.1247 60.9321 29.7331C60.3816 30.329 59.711 30.8509 58.9749 31.1947C57.4801 31.8932 55.8135 31.7296 54.2714 31.2823C53.9693 31.1956 53.1852 31.1983 52.968 31.5029C52.6827 31.9029 53.3584 32.6608 53.741 32.8263C55.6139 33.6376 57.622 33.7567 59.4205 32.7974C61.1781 31.8609 62.4411 32.393 63.7732 33.5914Z" fill="#3B3B3B"/>
<path d="M44.7258 32.9864C44.7258 32.9864 48.5998 43.5632 62.1228 37.2114C62.1228 37.2114 60.549 40.1706 53.6098 40.3414C46.6724 40.512 52.0667 45.2788 53.2248 45.425C53.2248 45.425 48.2286 44.5926 48.605 41.1239C48.9044 38.358 42.977 35.8748 44.7258 32.9864Z" fill="#EDB731"/>
</svg>
